<svg width="354" height="118" viewBox="0 0 354 118" fill="none" xmlns="http://www.w3.org/2000/svg">
<path d="M333.702 70.0069L329.151 67.6364L327.416 69.371C327.222 69.0509 326.953 68.774 326.629 68.5837L328.368 66.8448L325.993 62.2985C325.785 61.9005 325.215 61.9005 325.007 62.2985L322.636 66.8448L324.375 68.5837C324.051 68.7784 323.778 69.0466 323.588 69.371L321.849 67.6321L317.298 70.0069C316.901 70.2145 316.901 70.7855 317.298 70.9931L321.845 73.3636L323.584 71.6247C323.778 71.9491 324.047 72.2216 324.371 72.412L322.632 74.1509L325.003 78.6972C325.21 79.0952 325.781 79.0952 325.989 78.6972L328.359 74.1509L326.62 72.412C326.945 72.2216 327.217 71.9491 327.408 71.6247L329.142 73.3593L333.693 70.9888C334.099 70.7855 334.099 70.2145 333.702 70.0069ZM325.5 71.6117C324.881 71.6117 324.388 71.1056 324.388 70.5C324.388 69.8944 324.881 69.3883 325.5 69.3883C326.11 69.3883 326.612 69.8858 326.612 70.5C326.612 71.1099 326.114 71.6117 325.5 71.6117Z" fill="#E6DBCE"/>
<path d="M341.702 17.0069L337.151 14.6364L335.416 16.371C335.222 16.0509 334.953 15.774 334.629 15.5837L336.368 13.8448L333.993 9.29847C333.785 8.90051 333.215 8.90051 333.007 9.29847L330.636 13.8448L332.375 15.5837C332.051 15.7784 331.778 16.0466 331.588 16.371L329.849 14.6321L325.298 17.0069C324.901 17.2145 324.901 17.7855 325.298 17.9931L329.845 20.3636L331.584 18.6247C331.778 18.9491 332.047 19.2216 332.371 19.412L330.632 21.1509L333.003 25.6972C333.21 26.0952 333.781 26.0952 333.989 25.6972L336.359 21.1509L334.62 19.412C334.945 19.2216 335.217 18.9491 335.408 18.6247L337.142 20.3593L341.693 17.9888C342.099 17.7855 342.099 17.2145 341.702 17.0069ZM333.5 18.6117C332.881 18.6117 332.388 18.1056 332.388 17.5C332.388 16.8944 332.881 16.3883 333.5 16.3883C334.11 16.3883 334.612 16.8858 334.612 17.5C334.612 18.1099 334.114 18.6117 333.5 18.6117Z" fill="#E6DBCE"/>
<path d="M281.702 26.0069L277.151 23.6364L275.416 25.371C275.222 25.0509 274.953 24.774 274.629 24.5837L276.368 22.8448L273.993 18.2985C273.785 17.9005 273.215 17.9005 273.007 18.2985L270.636 22.8448L272.375 24.5837C272.051 24.7784 271.778 25.0466 271.588 25.371L269.849 23.6321L265.298 26.0069C264.901 26.2145 264.901 26.7855 265.298 26.9931L269.845 29.3636L271.584 27.6247C271.778 27.9491 272.047 28.2216 272.371 28.412L270.632 30.1509L273.003 34.6972C273.21 35.0952 273.781 35.0952 273.989 34.6972L276.359 30.1509L274.62 28.412C274.945 28.2216 275.217 27.9491 275.408 27.6247L277.142 29.3593L281.693 26.9888C282.099 26.7855 282.099 26.2145 281.702 26.0069ZM273.5 27.6117C272.881 27.6117 272.388 27.1056 272.388 26.5C272.388 25.8944 272.881 25.3883 273.5 25.3883C274.11 25.3883 274.612 25.8858 274.612 26.5C274.612 27.1099 274.114 27.6117 273.5 27.6117Z" fill="#E6DBCE"/>
<path d="M236.702 9.00687L232.151 6.63639L230.416 8.37099C230.222 8.05089 229.953 7.77405 229.629 7.58372L231.368 5.84478L228.993 1.29847C228.785 0.900509 228.215 0.900509 228.007 1.29847L225.636 5.84478L227.375 7.58372C227.051 7.77837 226.778 8.04657 226.588 8.37099L224.849 6.63206L220.298 9.00687C219.901 9.2145 219.901 9.7855 220.298 9.99313L224.845 12.3636L226.584 10.6247C226.778 10.9491 227.047 11.2216 227.371 11.412L225.632 13.1509L228.003 17.6972C228.21 18.0952 228.781 18.0952 228.989 17.6972L231.359 13.1509L229.62 11.412C229.945 11.2216 230.217 10.9491 230.408 10.6247L232.142 12.3593L236.693 9.9888C237.099 9.7855 237.099 9.2145 236.702 9.00687ZM228.5 10.6117C227.881 10.6117 227.388 10.1056 227.388 9.5C227.388 8.8944 227.881 8.3883 228.5 8.3883C229.11 8.3883 229.612 8.88575 229.612 9.5C229.612 10.1099 229.114 10.6117 228.5 10.6117Z" fill="#E6DBCE"/>
<path d="M122.702 8.00687L118.151 5.63639L116.416 7.37099C116.222 7.05089 115.953 6.77405 115.629 6.58372L117.368 4.84478L114.993 0.298473C114.785 -0.0994911 114.215 -0.0994911 114.007 0.298473L111.636 4.84478L113.375 6.58372C113.051 6.77837 112.778 7.04657 112.588 7.37099L110.849 5.63206L106.298 8.00687C105.901 8.2145 105.901 8.7855 106.298 8.99313L110.845 11.3636L112.584 9.62468C112.778 9.94911 113.047 10.2216 113.371 10.412L111.632 12.1509L114.003 16.6972C114.21 17.0952 114.781 17.0952 114.989 16.6972L117.359 12.1509L115.62 10.412C115.945 10.2216 116.217 9.94911 116.408 9.62468L118.142 11.3593L122.693 8.9888C123.099 8.7855 123.099 8.2145 122.702 8.00687ZM114.5 9.61171C113.881 9.61171 113.388 9.1056 113.388 8.5C113.388 7.8944 113.881 7.3883 114.5 7.3883C115.11 7.3883 115.612 7.88575 115.612 8.5C115.612 9.10992 115.114 9.61171 114.5 9.61171Z" fill="#E6DBCE"/>
<path d="M179.702 31.0069L175.151 28.6364L173.416 30.371C173.222 30.0509 172.953 29.774 172.629 29.5837L174.368 27.8448L171.993 23.2985C171.785 22.9005 171.215 22.9005 171.007 23.2985L168.636 27.8448L170.375 29.5837C170.051 29.7784 169.778 30.0466 169.588 30.371L167.849 28.6321L163.298 31.0069C162.901 31.2145 162.901 31.7855 163.298 31.9931L167.845 34.3636L169.584 32.6247C169.778 32.9491 170.047 33.2216 170.371 33.412L168.632 35.1509L171.003 39.6972C171.21 40.0952 171.781 40.0952 171.989 39.6972L174.359 35.1509L172.62 33.412C172.945 33.2216 173.217 32.9491 173.408 32.6247L175.142 34.3593L179.693 31.9888C180.099 31.7855 180.099 31.2145 179.702 31.0069ZM171.5 32.6117C170.881 32.6117 170.388 32.1056 170.388 31.5C170.388 30.8944 170.881 30.3883 171.5 30.3883C172.11 30.3883 172.612 30.8858 172.612 31.5C172.612 32.1099 172.114 32.6117 171.5 32.6117Z" fill="#E6DBCE"/>
<path d="M75.7015 31.0069L71.1509 28.6364L69.4163 30.371C69.2216 30.0509 68.9534 29.774 68.629 29.5837L70.3679 27.8448L67.9931 23.2985C67.7855 22.9005 67.2145 22.9005 67.0069 23.2985L64.6364 27.8448L66.3753 29.5837C66.0509 29.7784 65.7784 30.0466 65.588 30.371L63.8491 28.6321L59.2985 31.0069C58.9005 31.2145 58.9005 31.7855 59.2985 31.9931L63.8448 34.3636L65.5837 32.6247C65.7784 32.9491 66.0466 33.2216 66.371 33.412L64.6321 35.1509L67.0025 39.6972C67.2102 40.0952 67.7812 40.0952 67.9888 39.6972L70.3593 35.1509L68.6204 33.412C68.9448 33.2216 69.2173 32.9491 69.4076 32.6247L71.1422 34.3593L75.6929 31.9888C76.0995 31.7855 76.0995 31.2145 75.7015 31.0069ZM67.5 32.6117C66.8814 32.6117 66.3883 32.1056 66.3883 31.5C66.3883 30.8944 66.8814 30.3883 67.5 30.3883C68.1099 30.3883 68.6117 30.8858 68.6117 31.5C68.6117 32.1099 68.1142 32.6117 67.5 32.6117Z" fill="#E6DBCE"/>
<path d="M24.7015 18.0069L20.1509 15.6364L18.4163 17.371C18.2216 17.0509 17.9534 16.774 17.629 16.5837L19.3679 14.8448L16.9931 10.2985C16.7855 9.90051 16.2145 9.90051 16.0069 10.2985L13.6364 14.8448L15.3753 16.5837C15.0509 16.7784 14.7784 17.0466 14.588 17.371L12.8491 15.6321L8.29847 18.0069C7.90051 18.2145 7.90051 18.7855 8.29847 18.9931L12.8448 21.3636L14.5837 19.6247C14.7784 19.9491 15.0466 20.2216 15.371 20.412L13.6321 22.1509L16.0025 26.6972C16.2102 27.0952 16.7812 27.0952 16.9888 26.6972L19.3593 22.1509L17.6204 20.412C17.9448 20.2216 18.2173 19.9491 18.4076 19.6247L20.1422 21.3593L24.6929 18.9888C25.0995 18.7855 25.0995 18.2145 24.7015 18.0069ZM16.5 19.6117C15.8814 19.6117 15.3883 19.1056 15.3883 18.5C15.3883 17.8944 15.8814 17.3883 16.5 17.3883C17.1099 17.3883 17.6117 17.8858 17.6117 18.5C17.6117 19.1099 17.1142 19.6117 16.5 19.6117Z" fill="#E6DBCE"/>
<path d="M33.7015 70.0069L29.1509 67.6364L27.4163 69.371C27.2216 69.0509 26.9534 68.774 26.629 68.5837L28.3679 66.8448L25.9931 62.2985C25.7855 61.9005 25.2145 61.9005 25.0069 62.2985L22.6364 66.8448L24.3753 68.5837C24.0509 68.7784 23.7784 69.0466 23.588 69.371L21.8491 67.6321L17.2985 70.0069C16.9005 70.2145 16.9005 70.7855 17.2985 70.9931L21.8448 73.3636L23.5837 71.6247C23.7784 71.9491 24.0466 72.2216 24.371 72.412L22.6321 74.1509L25.0025 78.6972C25.2102 79.0952 25.7812 79.0952 25.9888 78.6972L28.3593 74.1509L26.6204 72.412C26.9448 72.2216 27.2173 71.9491 27.4076 71.6247L29.1422 73.3593L33.6929 70.9888C34.0995 70.7855 34.0995 70.2145 33.7015 70.0069ZM25.5 71.6117C24.8814 71.6117 24.3883 71.1056 24.3883 70.5C24.3883 69.8944 24.8814 69.3883 25.5 69.3883C26.1099 69.3883 26.6117 69.8858 26.6117 70.5C26.6117 71.1099 26.1142 71.6117 25.5 71.6117Z" fill="#E6DBCE"/>
<path d="M353.702 109.007L349.151 106.636L347.416 108.371C347.222 108.051 346.953 107.774 346.629 107.584L348.368 105.845L345.993 101.298C345.785 100.901 345.215 100.901 345.007 101.298L342.636 105.845L344.375 107.584C344.051 107.778 343.778 108.047 343.588 108.371L341.849 106.632L337.298 109.007C336.901 109.215 336.901 109.785 337.298 109.993L341.845 112.364L343.584 110.625C343.778 110.949 344.047 111.222 344.371 111.412L342.632 113.151L345.003 117.697C345.21 118.095 345.781 118.095 345.989 117.697L348.359 113.151L346.62 111.412C346.945 111.222 347.217 110.949 347.408 110.625L349.142 112.359L353.693 109.989C354.099 109.785 354.099 109.215 353.702 109.007ZM345.5 110.612C344.881 110.612 344.388 110.106 344.388 109.5C344.388 108.894 344.881 108.388 345.5 108.388C346.11 108.388 346.612 108.886 346.612 109.5C346.612 110.11 346.114 110.612 345.5 110.612Z" fill="#E6DBCE"/>
<path d="M16.7015 109.007L12.1509 106.636L10.4163 108.371C10.2216 108.051 9.95343 107.774 9.62901 107.584L11.3679 105.845L8.99313 101.298C8.7855 100.901 8.2145 100.901 8.00687 101.298L5.63639 105.845L7.37532 107.584C7.05089 107.778 6.77837 108.047 6.58804 108.371L4.84911 106.632L0.298473 109.007C-0.0994911 109.215 -0.0994911 109.785 0.298473 109.993L4.84478 112.364L6.58371 110.625C6.77837 110.949 7.04657 111.222 7.37099 111.412L5.63206 113.151L8.00254 117.697C8.21018 118.095 8.78117 118.095 8.9888 117.697L11.3593 113.151L9.62036 111.412C9.94478 111.222 10.2173 110.949 10.4076 110.625L12.1422 112.359L16.6929 109.989C17.0995 109.785 17.0995 109.215 16.7015 109.007ZM8.5 110.612C7.88142 110.612 7.38829 110.106 7.38829 109.5C7.38829 108.894 7.88142 108.388 8.5 108.388C9.10992 108.388 9.6117 108.886 9.6117 109.5C9.6117 110.11 9.11425 110.612 8.5 110.612Z" fill="#E6DBCE"/>
</svg>
