<svg width="364" height="625" viewBox="0 0 364 625" fill="none" xmlns="http://www.w3.org/2000/svg">
<path d="M339.729 13.091L346.336 16.5416L348.863 14.0103C349.14 14.4826 349.536 14.8793 350.007 15.1564L347.486 17.6814L350.931 24.3055C351.233 24.8848 352.063 24.8848 352.364 24.3055L355.809 17.6814L353.288 15.1564C353.754 14.873 354.156 14.4826 354.433 14.0103L356.96 16.5416L363.566 13.091C364.145 12.7888 364.145 11.9576 363.566 11.6554L356.96 8.20473L354.433 10.736C354.15 10.2638 353.76 9.86707 353.288 9.59002L355.815 7.05872L352.371 0.440824C352.069 -0.138478 351.239 -0.138478 350.937 0.440824L347.493 7.05872L350.02 9.59002C349.548 9.87337 349.152 10.2638 348.876 10.736L346.348 8.20473L339.742 11.6554C339.151 11.9576 339.151 12.7888 339.729 13.091ZM351.648 10.7549C352.528 10.7549 353.263 11.4727 353.263 12.3732C353.263 13.261 352.54 13.9915 351.648 13.9915C350.761 13.9915 350.032 13.2673 350.032 12.3732C350.032 11.4727 350.761 10.7549 351.648 10.7549Z" fill="#E6DBCE"/>
<path d="M351.648 52.748C352.54 52.748 353.263 52.0235 353.263 51.1297C353.263 50.236 352.54 49.5115 351.648 49.5115C350.756 49.5115 350.032 50.236 350.032 51.1297C350.032 52.0235 350.756 52.748 351.648 52.748Z" fill="#E6DBCE"/>
<path d="M339.717 90.5979L346.323 94.0485L348.85 91.5172C349.127 91.9894 349.523 92.3861 349.994 92.6632L347.474 95.1882L350.919 101.812C351.22 102.392 352.05 102.392 352.352 101.812L355.797 95.1882L353.276 92.6632C353.741 92.3798 354.143 91.9894 354.42 91.5172L356.947 94.0485L363.554 90.5979C364.132 90.2956 364.132 89.4644 363.554 89.1622L356.947 85.7116L354.42 88.2429C354.137 87.7706 353.747 87.3739 353.276 87.0969L355.803 84.5656L352.358 77.9477C352.056 77.3684 351.227 77.3684 350.925 77.9477L347.48 84.5656L350.007 87.0969C349.536 87.3802 349.14 87.7706 348.863 88.2429L346.336 85.7116L339.729 89.1622C339.138 89.4644 339.138 90.2956 339.717 90.5979ZM351.635 88.2618C352.515 88.2618 353.251 88.9796 353.251 89.88C353.251 90.7679 352.528 91.4983 351.635 91.4983C350.749 91.4983 350.02 90.7742 350.02 89.88C350.02 88.9859 350.755 88.2618 351.635 88.2618Z" fill="#E6DBCE"/>
<path d="M351.648 130.45C352.54 130.45 353.263 129.726 353.263 128.832C353.263 127.938 352.54 127.214 351.648 127.214C350.756 127.214 350.032 127.938 350.032 128.832C350.032 129.726 350.756 130.45 351.648 130.45Z" fill="#E6DBCE"/>
<path d="M339.717 168.3L346.323 171.751L348.85 169.219C349.127 169.692 349.523 170.088 349.994 170.365L347.474 172.89L350.919 179.514C351.22 180.094 352.05 180.094 352.352 179.514L355.797 172.89L353.276 170.365C353.741 170.082 354.143 169.692 354.42 169.219L356.947 171.751L363.554 168.3C364.132 167.998 364.132 167.167 363.554 166.864L356.947 163.414L354.42 165.945C354.137 165.473 353.747 165.076 353.276 164.799L355.803 162.268L352.358 155.65C352.056 155.071 351.227 155.071 350.925 155.65L347.48 162.268L350.007 164.799C349.536 165.082 349.14 165.473 348.863 165.945L346.336 163.414L339.729 166.864C339.138 167.173 339.138 167.998 339.717 168.3ZM351.635 165.97C352.515 165.97 353.251 166.688 353.251 167.588C353.251 168.476 352.528 169.207 351.635 169.207C350.749 169.207 350.02 168.483 350.02 167.588C350.02 166.688 350.755 165.97 351.635 165.97Z" fill="#E6DBCE"/>
<path d="M351.648 207.661C352.54 207.661 353.263 206.936 353.263 206.043C353.263 205.149 352.54 204.424 351.648 204.424C350.756 204.424 350.032 205.149 350.032 206.043C350.032 206.936 350.756 207.661 351.648 207.661Z" fill="#E6DBCE"/>
<path d="M339.717 245.511L346.323 248.961L348.85 246.43C349.127 246.902 349.523 247.299 349.994 247.576L347.474 250.101L350.919 256.725C351.22 257.305 352.05 257.305 352.352 256.725L355.797 250.107L353.276 247.582C353.741 247.299 354.143 246.909 354.42 246.436L356.947 248.968L363.554 245.517C364.132 245.215 364.132 244.384 363.554 244.081L356.947 240.631L354.42 243.162C354.137 242.69 353.747 242.293 353.276 242.016L355.803 239.485L352.358 232.867C352.056 232.288 351.227 232.288 350.925 232.867L347.48 239.485L350.007 242.016C349.536 242.299 349.14 242.69 348.863 243.162L346.336 240.631L339.729 244.081C339.138 244.377 339.138 245.208 339.717 245.511ZM351.635 243.175C352.515 243.175 353.251 243.892 353.251 244.793C353.251 245.681 352.528 246.411 351.635 246.411C350.749 246.411 350.02 245.687 350.02 244.793C350.02 243.899 350.755 243.175 351.635 243.175Z" fill="#E6DBCE"/>
<path d="M351.648 284.456C352.54 284.456 353.263 283.732 353.263 282.838C353.263 281.944 352.54 281.22 351.648 281.22C350.756 281.22 350.032 281.944 350.032 282.838C350.032 283.732 350.756 284.456 351.648 284.456Z" fill="#E6DBCE"/>
<path d="M310.957 50.7896L304.351 47.339L301.824 49.8703C301.541 49.398 301.151 49.0013 300.679 48.7243L303.206 46.193L299.762 39.5751C299.46 38.9958 298.63 38.9958 298.328 39.5751L294.884 46.193L297.411 48.7243C296.939 49.0076 296.543 49.398 296.267 49.8703L293.74 47.339L287.133 50.7896C286.554 51.0919 286.554 51.923 287.133 52.2253L293.74 55.6759L296.267 53.1446C296.543 53.6169 296.939 54.0136 297.411 54.2906L294.89 56.8156L298.335 63.4398C298.636 64.0191 299.466 64.0191 299.768 63.4398L303.213 56.8156L300.692 54.2906C301.157 54.0073 301.56 53.6169 301.836 53.1446L304.363 55.6759L310.97 52.2253C311.542 51.9168 311.542 51.0919 310.957 50.7896ZM299.039 53.1194C298.152 53.1194 297.423 52.3953 297.423 51.5012C297.423 50.6007 298.159 49.8829 299.039 49.8829C299.919 49.8829 300.654 50.6007 300.654 51.5012C300.654 52.3953 299.931 53.1194 299.039 53.1194Z" fill="#E6DBCE"/>
<path d="M299.039 91.8762C299.931 91.8762 300.654 91.1517 300.654 90.2579C300.654 89.3642 299.931 88.6396 299.039 88.6396C298.147 88.6396 297.423 89.3642 297.423 90.2579C297.423 91.1517 298.147 91.8762 299.039 91.8762Z" fill="#E6DBCE"/>
<path d="M296.248 127.371L293.721 124.84L287.114 128.29C286.536 128.593 286.536 129.424 287.114 129.726L293.721 133.177L296.248 130.645C296.524 131.118 296.92 131.514 297.392 131.791L294.871 134.316L298.316 140.941C298.618 141.52 299.447 141.52 299.749 140.941L303.194 134.316L300.673 131.791C301.138 131.508 301.541 131.118 301.817 130.645L304.344 133.177L310.951 129.726C311.529 129.424 311.529 128.593 310.951 128.29L304.344 124.84L301.817 127.371C301.534 126.899 301.145 126.502 300.673 126.225L303.2 123.694L299.755 117.076C299.454 116.497 298.624 116.497 298.322 117.076L294.877 123.694L297.404 126.225C296.92 126.508 296.531 126.899 296.248 127.371ZM299.032 127.396C299.913 127.396 300.648 128.114 300.648 129.014C300.648 129.902 299.925 130.633 299.032 130.633C298.146 130.633 297.417 129.909 297.417 129.014C297.417 128.114 298.146 127.396 299.032 127.396Z" fill="#E6DBCE"/>
<path d="M299.039 169.578C299.931 169.578 300.654 168.854 300.654 167.96C300.654 167.066 299.931 166.342 299.039 166.342C298.147 166.342 297.423 167.066 297.423 167.96C297.423 168.854 298.147 169.578 299.039 169.578Z" fill="#E6DBCE"/>
<path d="M287.114 207.434L293.721 210.885L296.248 208.354C296.524 208.826 296.92 209.223 297.392 209.5L294.871 212.025L298.316 218.649C298.618 219.228 299.447 219.228 299.749 218.649L303.194 212.025L300.673 209.5C301.138 209.216 301.541 208.826 301.817 208.354L304.344 210.885L310.951 207.434C311.529 207.132 311.529 206.301 310.951 205.999L304.344 202.548L301.817 205.079C301.534 204.607 301.145 204.21 300.673 203.933L303.2 201.402L299.755 194.784C299.454 194.205 298.624 194.205 298.322 194.784L294.877 201.402L297.404 203.933C296.933 204.217 296.537 204.607 296.26 205.079L293.733 202.548L287.127 205.999C286.536 206.301 286.536 207.132 287.114 207.434ZM299.033 205.098C299.913 205.098 300.648 205.816 300.648 206.716C300.648 207.604 299.925 208.335 299.033 208.335C298.146 208.335 297.417 207.611 297.417 206.716C297.417 205.816 298.146 205.098 299.033 205.098Z" fill="#E6DBCE"/>
<path d="M299.039 246.789C299.931 246.789 300.654 246.064 300.654 245.171C300.654 244.277 299.931 243.552 299.039 243.552C298.147 243.552 297.423 244.277 297.423 245.171C297.423 246.064 298.147 246.789 299.039 246.789Z" fill="#E6DBCE"/>
<path d="M287.114 284.645L293.721 288.096L296.248 285.565C296.524 286.037 296.92 286.434 297.392 286.711L294.871 289.236L298.316 295.86C298.618 296.439 299.447 296.439 299.749 295.86L303.194 289.236L300.673 286.711C301.138 286.427 301.541 286.037 301.817 285.565L304.344 288.096L310.951 284.645C311.529 284.343 311.529 283.512 310.951 283.21L304.344 279.759L301.817 282.29C301.534 281.818 301.145 281.421 300.673 281.144L303.2 278.613L299.755 271.995C299.454 271.416 298.624 271.416 298.322 271.995L294.877 278.613L297.404 281.144C296.933 281.428 296.537 281.818 296.26 282.29L293.733 279.759L287.127 283.21C286.536 283.512 286.536 284.343 287.114 284.645ZM299.033 282.309C299.913 282.309 300.648 283.027 300.648 283.927C300.648 284.815 299.925 285.546 299.033 285.546C298.146 285.546 297.417 284.822 297.417 283.927C297.417 283.027 298.146 282.309 299.033 282.309Z" fill="#E6DBCE"/>
<path d="M299.051 14.3693C299.944 14.3693 300.667 13.6448 300.667 12.7511C300.667 11.8573 299.944 11.1328 299.051 11.1328C298.159 11.1328 297.436 11.8573 297.436 12.7511C297.436 13.6448 298.159 14.3693 299.051 14.3693Z" fill="#E6DBCE"/>
<path d="M265.49 11.6554L258.883 8.20473L256.356 10.736C256.073 10.2638 255.683 9.86707 255.212 9.59002L257.739 7.05872L254.294 0.440824C253.992 -0.138478 253.162 -0.138478 252.861 0.440824L249.416 7.05872L251.943 9.59002C251.471 9.87337 251.075 10.2638 250.799 10.736L248.272 8.20473L241.665 11.6554C241.087 11.9576 241.087 12.7888 241.665 13.091L248.272 16.5416L250.799 14.0103C251.075 14.4826 251.471 14.8793 251.943 15.1564L249.422 17.6814L252.867 24.3055C253.169 24.8848 253.999 24.8848 254.3 24.3055L257.732 17.6814L255.212 15.1564C255.677 14.873 256.079 14.4826 256.356 14.0103L258.883 16.5416L265.49 13.091C266.068 12.7888 266.068 11.9576 265.49 11.6554ZM253.571 13.9915C252.685 13.9915 251.956 13.2673 251.956 12.3732C251.956 11.4727 252.691 10.7549 253.571 10.7549C254.451 10.7549 255.187 11.4727 255.187 12.3732C255.187 13.261 254.464 13.9915 253.571 13.9915Z" fill="#E6DBCE"/>
<path d="M253.571 52.748C254.463 52.748 255.187 52.0235 255.187 51.1297C255.187 50.236 254.463 49.5115 253.571 49.5115C252.679 49.5115 251.955 50.236 251.955 51.1297C251.955 52.0235 252.679 52.748 253.571 52.748Z" fill="#E6DBCE"/>
<path d="M250.78 88.2429L248.253 85.7116L241.646 89.1622C241.068 89.4644 241.068 90.2956 241.646 90.5979L248.253 94.0485L250.78 91.5172C251.057 91.9894 251.453 92.3861 251.924 92.6632L249.403 95.1882L252.848 101.812C253.15 102.392 253.98 102.392 254.281 101.812L257.726 95.1882L255.205 92.6632C255.671 92.3798 256.073 91.9894 256.35 91.5172L258.877 94.0485L265.483 90.5979C266.062 90.2956 266.062 89.4644 265.483 89.1622L258.877 85.7116L256.35 88.2429C256.067 87.7706 255.677 87.3739 255.205 87.0969L257.732 84.5656L254.288 77.9477C253.986 77.3684 253.156 77.3684 252.854 77.9477L249.41 84.5656L251.937 87.0969C251.453 87.3739 251.057 87.7706 250.78 88.2429ZM253.558 88.2618C254.439 88.2618 255.174 88.9796 255.174 89.88C255.174 90.7679 254.451 91.4983 253.558 91.4983C252.672 91.4983 251.943 90.7742 251.943 89.88C251.949 88.9859 252.678 88.2618 253.558 88.2618Z" fill="#E6DBCE"/>
<path d="M253.571 130.45C254.463 130.45 255.187 129.726 255.187 128.832C255.187 127.938 254.463 127.214 253.571 127.214C252.679 127.214 251.955 127.938 251.955 128.832C251.955 129.726 252.679 130.45 253.571 130.45Z" fill="#E6DBCE"/>
<path d="M241.646 168.3L248.253 171.751L250.78 169.219C251.057 169.692 251.453 170.088 251.924 170.365L249.403 172.89L252.848 179.514C253.15 180.094 253.98 180.094 254.281 179.514L257.726 172.89L255.206 170.365C255.671 170.082 256.073 169.692 256.35 169.219L258.877 171.751L265.483 168.3C266.062 167.998 266.062 167.167 265.483 166.864L258.877 163.414L256.35 165.945C256.067 165.473 255.677 165.076 255.206 164.799L257.733 162.268L254.288 155.65C253.986 155.071 253.156 155.071 252.855 155.65L249.41 162.268L251.937 164.799C251.465 165.082 251.069 165.473 250.793 165.945L248.266 163.414L241.659 166.864C241.062 167.173 241.062 167.998 241.646 168.3ZM253.559 165.97C254.439 165.97 255.174 166.688 255.174 167.588C255.174 168.476 254.451 169.207 253.559 169.207C252.672 169.207 251.943 168.483 251.943 167.588C251.949 166.688 252.678 165.97 253.559 165.97Z" fill="#E6DBCE"/>
<path d="M253.571 207.661C254.463 207.661 255.187 206.936 255.187 206.043C255.187 205.149 254.463 204.424 253.571 204.424C252.679 204.424 251.955 205.149 251.955 206.043C251.955 206.936 252.679 207.661 253.571 207.661Z" fill="#E6DBCE"/>
<path d="M241.646 245.511L248.253 248.961L250.78 246.43C251.057 246.902 251.453 247.299 251.924 247.576L249.403 250.101L252.848 256.725C253.15 257.305 253.98 257.305 254.281 256.725L257.726 250.101L255.206 247.576C255.671 247.293 256.073 246.902 256.35 246.43L258.877 248.961L265.483 245.511C266.062 245.208 266.062 244.377 265.483 244.075L258.877 240.624L256.35 243.156C256.067 242.683 255.677 242.287 255.206 242.01L257.733 239.478L254.288 232.861C253.986 232.281 253.156 232.281 252.855 232.861L249.41 239.478L251.937 242.01C251.465 242.293 251.069 242.683 250.793 243.156L248.266 240.624L241.659 244.075C241.062 244.377 241.062 245.208 241.646 245.511ZM253.559 243.175C254.439 243.175 255.174 243.892 255.174 244.793C255.174 245.681 254.451 246.411 253.559 246.411C252.672 246.411 251.943 245.687 251.943 244.793C251.949 243.899 252.678 243.175 253.559 243.175Z" fill="#E6DBCE"/>
<path d="M253.571 284.456C254.463 284.456 255.187 283.732 255.187 282.838C255.187 281.944 254.463 281.22 253.571 281.22C252.679 281.22 251.955 281.944 251.955 282.838C251.955 283.732 252.679 284.456 253.571 284.456Z" fill="#E6DBCE"/>
<path d="M212.887 50.7896L206.28 47.339L203.753 49.8703C203.47 49.398 203.081 49.0013 202.609 48.7243L205.136 46.193L201.691 39.5751C201.39 38.9958 200.56 38.9958 200.258 39.5751L196.813 46.193L199.34 48.7243C198.869 49.0076 198.473 49.398 198.196 49.8703L195.669 47.339L189.062 50.7896C188.484 51.0919 188.484 51.923 189.062 52.2253L195.669 55.6759L198.196 53.1446C198.473 53.6169 198.869 54.0136 199.34 54.2906L196.82 56.8156L200.264 63.4398C200.566 64.0191 201.396 64.0191 201.698 63.4398L205.142 56.8156L202.622 54.2906C203.087 54.0073 203.489 53.6169 203.766 53.1446L206.293 55.6759L212.9 52.2253C213.465 51.9168 213.465 51.0919 212.887 50.7896ZM200.968 53.1194C200.082 53.1194 199.353 52.3953 199.353 51.5012C199.353 50.6007 200.088 49.8829 200.968 49.8829C201.848 49.8829 202.584 50.6007 202.584 51.5012C202.584 52.3953 201.861 53.1194 200.968 53.1194Z" fill="#E6DBCE"/>
<path d="M200.969 91.8762C201.861 91.8762 202.584 91.1517 202.584 90.2579C202.584 89.3642 201.861 88.6396 200.969 88.6396C200.076 88.6396 199.353 89.3642 199.353 90.2579C199.353 91.1517 200.076 91.8762 200.969 91.8762Z" fill="#E6DBCE"/>
<path d="M198.171 127.371L195.644 124.84L189.037 128.29C188.459 128.593 188.459 129.424 189.037 129.726L195.644 133.177L198.171 130.645C198.448 131.118 198.844 131.514 199.315 131.791L196.794 134.316L200.239 140.941C200.541 141.52 201.371 141.52 201.673 140.941L205.117 134.316L202.597 131.791C203.062 131.508 203.464 131.118 203.741 130.645L206.268 133.177L212.874 129.726C213.453 129.424 213.453 128.593 212.874 128.29L206.268 124.84L203.741 127.371C203.458 126.899 203.068 126.502 202.597 126.225L205.124 123.694L201.679 117.076C201.377 116.497 200.547 116.497 200.246 117.076L196.801 123.694L199.328 126.225C198.844 126.508 198.454 126.899 198.171 127.371ZM200.956 127.396C201.836 127.396 202.571 128.114 202.571 129.014C202.571 129.902 201.849 130.633 200.956 130.633C200.07 130.633 199.34 129.909 199.34 129.014C199.34 128.114 200.076 127.396 200.956 127.396Z" fill="#E6DBCE"/>
<path d="M200.969 169.578C201.861 169.578 202.584 168.854 202.584 167.96C202.584 167.066 201.861 166.342 200.969 166.342C200.076 166.342 199.353 167.066 199.353 167.96C199.353 168.854 200.076 169.578 200.969 169.578Z" fill="#E6DBCE"/>
<path d="M189.037 207.434L195.644 210.885L198.171 208.354C198.448 208.826 198.844 209.223 199.315 209.5L196.795 212.025L200.239 218.649C200.541 219.228 201.371 219.228 201.673 218.649L205.117 212.025L202.597 209.5C203.062 209.216 203.464 208.826 203.741 208.354L206.268 210.885L212.875 207.434C213.453 207.132 213.453 206.301 212.875 205.999L206.268 202.548L203.741 205.079C203.458 204.607 203.068 204.21 202.597 203.933L205.124 201.402L201.679 194.784C201.377 194.205 200.547 194.205 200.246 194.784L196.801 201.402L199.328 203.933C198.856 204.217 198.46 204.607 198.184 205.079L195.657 202.548L189.05 205.999C188.459 206.301 188.459 207.132 189.037 207.434ZM200.956 205.098C201.836 205.098 202.571 205.816 202.571 206.716C202.571 207.604 201.849 208.335 200.956 208.335C200.07 208.335 199.34 207.611 199.34 206.716C199.34 205.816 200.076 205.098 200.956 205.098Z" fill="#E6DBCE"/>
<path d="M200.969 246.789C201.861 246.789 202.584 246.064 202.584 245.171C202.584 244.277 201.861 243.552 200.969 243.552C200.076 243.552 199.353 244.277 199.353 245.171C199.353 246.064 200.076 246.789 200.969 246.789Z" fill="#E6DBCE"/>
<path d="M189.037 284.645L195.644 288.096L198.171 285.565C198.448 286.037 198.844 286.434 199.315 286.711L196.795 289.236L200.239 295.86C200.541 296.439 201.371 296.439 201.673 295.86L205.117 289.236L202.597 286.711C203.062 286.427 203.464 286.037 203.741 285.565L206.268 288.096L212.875 284.645C213.453 284.343 213.453 283.512 212.875 283.21L206.268 279.759L203.741 282.29C203.458 281.818 203.068 281.421 202.597 281.144L205.124 278.613L201.679 271.995C201.377 271.416 200.547 271.416 200.246 271.995L196.801 278.613L199.328 281.144C198.856 281.428 198.46 281.818 198.184 282.29L195.657 279.759L189.05 283.21C188.459 283.512 188.459 284.343 189.037 284.645ZM200.956 282.309C201.836 282.309 202.571 283.027 202.571 283.927C202.571 284.815 201.849 285.546 200.956 285.546C200.07 285.546 199.34 284.822 199.34 283.927C199.34 283.027 200.076 282.309 200.956 282.309Z" fill="#E6DBCE"/>
<path d="M200.981 14.3693C201.873 14.3693 202.597 13.6448 202.597 12.7511C202.597 11.8573 201.873 11.1328 200.981 11.1328C200.089 11.1328 199.366 11.8573 199.366 12.7511C199.366 13.6448 200.089 14.3693 200.981 14.3693Z" fill="#E6DBCE"/>
<path d="M174.956 11.6554L168.35 8.20473L165.823 10.736C165.54 10.2638 165.15 9.86707 164.678 9.59002L167.206 7.05872L163.761 0.440824C163.459 -0.138478 162.629 -0.138478 162.327 0.440824L158.883 7.05872L161.41 9.59002C160.938 9.87337 160.542 10.2638 160.266 10.736L157.739 8.20473L151.132 11.6554C150.553 11.9576 150.553 12.7888 151.132 13.091L157.739 16.5416L160.266 14.0103C160.542 14.4826 160.938 14.8793 161.41 15.1564L158.889 17.6814L162.334 24.3055C162.635 24.8848 163.465 24.8848 163.767 24.3055L167.212 17.6814L164.691 15.1564C165.156 14.873 165.559 14.4826 165.835 14.0103L168.362 16.5416L174.969 13.091C175.541 12.7888 175.541 11.9576 174.956 11.6554ZM163.044 13.9915C162.158 13.9915 161.429 13.2673 161.429 12.3732C161.429 11.4727 162.164 10.7549 163.044 10.7549C163.924 10.7549 164.66 11.4727 164.66 12.3732C164.66 13.261 163.93 13.9915 163.044 13.9915Z" fill="#E6DBCE"/>
<path d="M163.044 52.748C163.936 52.748 164.66 52.0235 164.66 51.1297C164.66 50.236 163.936 49.5115 163.044 49.5115C162.152 49.5115 161.429 50.236 161.429 51.1297C161.429 52.0235 162.152 52.748 163.044 52.748Z" fill="#E6DBCE"/>
<path d="M160.247 88.2429L157.72 85.7116L151.113 89.1622C150.535 89.4644 150.535 90.2956 151.113 90.5979L157.72 94.0485L160.247 91.5172C160.523 91.9894 160.919 92.3861 161.391 92.6632L158.87 95.1882L162.315 101.812C162.617 102.392 163.446 102.392 163.748 101.812L167.193 95.1882L164.672 92.6632C165.137 92.3798 165.54 91.9894 165.816 91.5172L168.343 94.0485L174.95 90.5979C175.528 90.2956 175.528 89.4644 174.95 89.1622L168.343 85.7116L165.816 88.2429C165.533 87.7706 165.144 87.3739 164.672 87.0969L167.199 84.5656L163.754 77.9477C163.453 77.3684 162.623 77.3684 162.321 77.9477L158.876 84.5656L161.403 87.0969C160.919 87.3739 160.53 87.7706 160.247 88.2429ZM163.032 88.2618C163.912 88.2618 164.647 88.9796 164.647 89.88C164.647 90.7679 163.924 91.4983 163.032 91.4983C162.145 91.4983 161.416 90.7742 161.416 89.88C161.416 88.9859 162.151 88.2618 163.032 88.2618Z" fill="#E6DBCE"/>
<path d="M163.044 130.45C163.936 130.45 164.66 129.726 164.66 128.832C164.66 127.938 163.936 127.214 163.044 127.214C162.152 127.214 161.429 127.938 161.429 128.832C161.429 129.726 162.152 130.45 163.044 130.45Z" fill="#E6DBCE"/>
<path d="M151.113 168.3L157.72 171.751L160.247 169.219C160.523 169.692 160.919 170.088 161.391 170.365L158.87 172.89L162.315 179.514C162.617 180.094 163.446 180.094 163.748 179.514L167.193 172.89L164.672 170.365C165.137 170.082 165.54 169.692 165.816 169.219L168.343 171.751L174.95 168.3C175.528 167.998 175.528 167.167 174.95 166.864L168.343 163.414L165.816 165.945C165.533 165.473 165.144 165.076 164.672 164.799L167.199 162.268L163.754 155.65C163.453 155.071 162.623 155.071 162.321 155.65L158.876 162.268L161.403 164.799C160.932 165.082 160.536 165.473 160.259 165.945L157.732 163.414L151.126 166.864C150.535 167.173 150.535 167.998 151.113 168.3ZM163.032 165.97C163.912 165.97 164.647 166.688 164.647 167.588C164.647 168.476 163.924 169.207 163.032 169.207C162.145 169.207 161.416 168.483 161.416 167.588C161.416 166.688 162.151 165.97 163.032 165.97Z" fill="#E6DBCE"/>
<path d="M163.044 207.661C163.936 207.661 164.66 206.936 164.66 206.043C164.66 205.149 163.936 204.424 163.044 204.424C162.152 204.424 161.429 205.149 161.429 206.043C161.429 206.936 162.152 207.661 163.044 207.661Z" fill="#E6DBCE"/>
<path d="M151.113 245.511L157.72 248.961L160.247 246.43C160.523 246.902 160.919 247.299 161.391 247.576L158.87 250.101L162.315 256.725C162.617 257.305 163.446 257.305 163.748 256.725L167.193 250.101L164.672 247.576C165.137 247.293 165.54 246.902 165.816 246.43L168.343 248.961L174.95 245.511C175.528 245.208 175.528 244.377 174.95 244.075L168.343 240.624L165.816 243.156C165.533 242.683 165.144 242.287 164.672 242.01L167.199 239.478L163.754 232.861C163.453 232.281 162.623 232.281 162.321 232.861L158.876 239.478L161.403 242.01C160.932 242.293 160.536 242.683 160.259 243.156L157.732 240.624L151.126 244.075C150.535 244.377 150.535 245.208 151.113 245.511ZM163.032 243.175C163.912 243.175 164.647 243.892 164.647 244.793C164.647 245.681 163.924 246.411 163.032 246.411C162.145 246.411 161.416 245.687 161.416 244.793C161.416 243.899 162.151 243.175 163.032 243.175Z" fill="#E6DBCE"/>
<path d="M163.044 284.456C163.936 284.456 164.66 283.732 164.66 282.838C164.66 281.944 163.936 281.22 163.044 281.22C162.152 281.22 161.429 281.944 161.429 282.838C161.429 283.732 162.152 284.456 163.044 284.456Z" fill="#E6DBCE"/>
<path d="M122.354 50.7896L115.747 47.339L113.22 49.8703C112.937 49.398 112.547 49.0013 112.076 48.7243L114.603 46.193L111.158 39.5751C110.856 38.9958 110.027 38.9958 109.725 39.5751L106.28 46.193L108.807 48.7243C108.336 49.0076 107.94 49.398 107.663 49.8703L105.136 47.339L98.5292 50.7896C97.9509 51.0919 97.9509 51.923 98.5292 52.2253L105.136 55.6759L107.663 53.1446C107.94 53.6169 108.336 54.0136 108.807 54.2906L106.286 56.8156L109.731 63.4398C110.033 64.0191 110.863 64.0191 111.164 63.4398L114.609 56.8156L112.088 54.2906C112.554 54.0073 112.956 53.6169 113.233 53.1446L115.76 55.6759L122.366 52.2253C122.932 51.9168 122.932 51.0919 122.354 50.7896ZM110.435 53.1194C109.549 53.1194 108.82 52.3953 108.82 51.5012C108.82 50.6007 109.555 49.8829 110.435 49.8829C111.315 49.8829 112.051 50.6007 112.051 51.5012C112.051 52.3953 111.328 53.1194 110.435 53.1194Z" fill="#E6DBCE"/>
<path d="M110.435 91.8762C111.327 91.8762 112.051 91.1517 112.051 90.2579C112.051 89.3642 111.327 88.6396 110.435 88.6396C109.543 88.6396 108.82 89.3642 108.82 90.2579C108.82 91.1517 109.543 91.8762 110.435 91.8762Z" fill="#E6DBCE"/>
<path d="M107.644 127.371L105.117 124.84L98.5104 128.29C97.9321 128.593 97.9321 129.424 98.5104 129.726L105.117 133.177L107.644 130.645C107.921 131.118 108.317 131.514 108.788 131.791L106.268 134.316L109.712 140.941C110.014 141.52 110.844 141.52 111.146 140.941L114.59 134.316L112.07 131.791C112.535 131.508 112.937 131.118 113.214 130.645L115.741 133.177L122.348 129.726C122.926 129.424 122.926 128.593 122.348 128.29L115.741 124.84L113.214 127.371C112.931 126.899 112.541 126.502 112.07 126.225L114.597 123.694L111.152 117.076C110.85 116.497 110.02 116.497 109.719 117.076L106.274 123.694L108.801 126.225C108.317 126.508 107.921 126.899 107.644 127.371ZM110.429 127.396C111.309 127.396 112.044 128.114 112.044 129.014C112.044 129.902 111.322 130.633 110.429 130.633C109.543 130.633 108.813 129.909 108.813 129.014C108.813 128.114 109.543 127.396 110.429 127.396Z" fill="#E6DBCE"/>
<path d="M110.435 169.578C111.327 169.578 112.051 168.854 112.051 167.96C112.051 167.066 111.327 166.342 110.435 166.342C109.543 166.342 108.82 167.066 108.82 167.96C108.82 168.854 109.543 169.578 110.435 169.578Z" fill="#E6DBCE"/>
<path d="M98.5104 207.434L105.117 210.885L107.644 208.354C107.921 208.826 108.317 209.223 108.788 209.5L106.267 212.025L109.712 218.649C110.014 219.228 110.844 219.228 111.146 218.649L114.59 212.025L112.07 209.5C112.535 209.216 112.937 208.826 113.214 208.354L115.741 210.885L122.347 207.434C122.926 207.132 122.926 206.301 122.347 205.999L115.741 202.548L113.214 205.079C112.931 204.607 112.541 204.21 112.07 203.933L114.597 201.402L111.152 194.784C110.85 194.205 110.02 194.205 109.719 194.784L106.274 201.402L108.801 203.933C108.329 204.217 107.933 204.607 107.657 205.079L105.13 202.548L98.5229 205.999C97.932 206.301 97.9258 207.132 98.5104 207.434ZM110.429 205.098C111.309 205.098 112.044 205.816 112.044 206.716C112.044 207.604 111.322 208.335 110.429 208.335C109.543 208.335 108.813 207.611 108.813 206.716C108.813 205.816 109.543 205.098 110.429 205.098Z" fill="#E6DBCE"/>
<path d="M110.435 246.789C111.327 246.789 112.051 246.064 112.051 245.171C112.051 244.277 111.327 243.552 110.435 243.552C109.543 243.552 108.82 244.277 108.82 245.171C108.82 246.064 109.543 246.789 110.435 246.789Z" fill="#E6DBCE"/>
<path d="M98.5104 284.645L105.117 288.096L107.644 285.565C107.921 286.037 108.317 286.434 108.788 286.711L106.267 289.236L109.712 295.86C110.014 296.439 110.844 296.439 111.146 295.86L114.59 289.236L112.07 286.711C112.535 286.427 112.937 286.037 113.214 285.565L115.741 288.096L122.347 284.645C122.926 284.343 122.926 283.512 122.347 283.21L115.741 279.759L113.214 282.29C112.931 281.818 112.541 281.421 112.07 281.144L114.597 278.613L111.152 271.995C110.85 271.416 110.02 271.416 109.719 271.995L106.274 278.613L108.801 281.144C108.329 281.428 107.933 281.818 107.657 282.29L105.13 279.759L98.5229 283.21C97.932 283.512 97.9258 284.343 98.5104 284.645ZM110.429 282.309C111.309 282.309 112.044 283.027 112.044 283.927C112.044 284.815 111.322 285.546 110.429 285.546C109.543 285.546 108.813 284.822 108.813 283.927C108.813 283.027 109.543 282.309 110.429 282.309Z" fill="#E6DBCE"/>
<path d="M110.448 14.3693C111.34 14.3693 112.063 13.6448 112.063 12.7511C112.063 11.8573 111.34 11.1328 110.448 11.1328C109.556 11.1328 108.832 11.8573 108.832 12.7511C108.832 13.6448 109.556 14.3693 110.448 14.3693Z" fill="#E6DBCE"/>
<path d="M76.886 11.6554L70.2792 8.20473L67.7522 10.736C67.4693 10.2638 67.0796 9.86707 66.6081 9.59002L69.1351 7.05872L65.6903 0.440824C65.3886 -0.138478 64.5588 -0.138478 64.2571 0.440824L60.8123 7.05872L63.3393 9.59002C62.8678 9.87337 62.4718 10.2638 62.1952 10.736L59.6682 8.20473L53.0614 11.6554C52.4831 11.9576 52.4831 12.7888 53.0614 13.091L59.6682 16.5416L62.1952 14.0103C62.4718 14.4826 62.8678 14.8793 63.3393 15.1564L60.8185 17.6814L64.2634 24.3055C64.5651 24.8848 65.3949 24.8848 65.6966 24.3055L69.1414 17.6814L66.6207 15.1564C67.0859 14.873 67.4882 14.4826 67.7648 14.0103L70.2918 16.5416L76.8985 13.091C77.4643 12.7888 77.4643 11.9576 76.886 11.6554ZM64.9674 13.9915C64.0811 13.9915 63.3519 13.2673 63.3519 12.3732C63.3519 11.4727 64.0874 10.7549 64.9674 10.7549C65.8475 10.7549 66.583 11.4727 66.583 12.3732C66.583 13.261 65.86 13.9915 64.9674 13.9915Z" fill="#E6DBCE"/>
<path d="M64.9674 52.748C65.8596 52.748 66.5829 52.0235 66.5829 51.1297C66.5829 50.236 65.8596 49.5115 64.9674 49.5115C64.0752 49.5115 63.3519 50.236 63.3519 51.1297C63.3519 52.0235 64.0752 52.748 64.9674 52.748Z" fill="#E6DBCE"/>
<path d="M62.1764 88.2429L59.6493 85.7116L53.0426 89.1622C52.4642 89.4644 52.4642 90.2956 53.0426 90.5979L59.6493 94.0485L62.1764 91.5172C62.453 91.9894 62.849 92.3861 63.3204 92.6632L60.7997 95.1882L64.2445 101.812C64.5462 102.392 65.376 102.392 65.6778 101.812L69.1226 95.1882L66.6018 92.6632C67.067 92.3798 67.4693 91.9894 67.7459 91.5172L70.2729 94.0485L76.8797 90.5979C77.458 90.2956 77.458 89.4644 76.8797 89.1622L70.2729 85.7116L67.7459 88.2429C67.463 87.7706 67.0733 87.3739 66.6018 87.0969L69.1289 84.5656L65.684 77.9477C65.3823 77.3684 64.5525 77.3684 64.2508 77.9477L60.806 84.5656L63.333 87.0969C62.849 87.3739 62.453 87.7706 62.1764 88.2429ZM64.9548 88.2618C65.8349 88.2618 66.5704 88.9796 66.5704 89.88C66.5704 90.7679 65.8475 91.4983 64.9548 91.4983C64.0685 91.4983 63.3393 90.7742 63.3393 89.88C63.3393 88.9859 64.0748 88.2618 64.9548 88.2618Z" fill="#E6DBCE"/>
<path d="M64.9674 130.45C65.8596 130.45 66.5829 129.726 66.5829 128.832C66.5829 127.938 65.8596 127.214 64.9674 127.214C64.0752 127.214 63.3519 127.938 63.3519 128.832C63.3519 129.726 64.0752 130.45 64.9674 130.45Z" fill="#E6DBCE"/>
<path d="M53.0426 168.3L59.6493 171.751L62.1763 169.219C62.4529 169.692 62.849 170.088 63.3204 170.365L60.7997 172.89L64.2445 179.514C64.5462 180.094 65.376 180.094 65.6777 179.514L69.1225 172.89L66.6018 170.365C67.067 170.082 67.4693 169.692 67.7459 169.219L70.2729 171.751L76.8796 168.3C77.458 167.998 77.458 167.167 76.8796 166.864L70.2729 163.414L67.7459 165.945C67.463 165.473 67.0732 165.076 66.6018 164.799L69.1288 162.268L65.684 155.65C65.3823 155.071 64.5525 155.071 64.2508 155.65L60.806 162.268L63.333 164.799C62.8615 165.082 62.4655 165.473 62.1889 165.945L59.6619 163.414L53.0551 166.864C52.4579 167.173 52.4579 167.998 53.0426 168.3ZM64.9548 165.97C65.8349 165.97 66.5704 166.688 66.5704 167.588C66.5704 168.476 65.8474 169.207 64.9548 169.207C64.0685 169.207 63.3393 168.483 63.3393 167.588C63.3393 166.688 64.0748 165.97 64.9548 165.97Z" fill="#E6DBCE"/>
<path d="M64.9674 207.661C65.8596 207.661 66.5829 206.936 66.5829 206.043C66.5829 205.149 65.8596 204.424 64.9674 204.424C64.0752 204.424 63.3519 205.149 63.3519 206.043C63.3519 206.936 64.0752 207.661 64.9674 207.661Z" fill="#E6DBCE"/>
<path d="M53.0426 245.511L59.6493 248.961L62.1763 246.43C62.4529 246.902 62.849 247.299 63.3204 247.576L60.7997 250.101L64.2445 256.725C64.5462 257.305 65.376 257.305 65.6777 256.725L69.1225 250.101L66.6018 247.576C67.067 247.293 67.4693 246.902 67.7459 246.43L70.2729 248.961L76.8796 245.511C77.458 245.208 77.458 244.377 76.8796 244.075L70.2729 240.624L67.7459 243.156C67.463 242.683 67.0732 242.287 66.6018 242.01L69.1288 239.478L65.684 232.861C65.3823 232.281 64.5525 232.281 64.2508 232.861L60.806 239.478L63.333 242.01C62.8615 242.293 62.4655 242.683 62.1889 243.156L59.6619 240.624L53.0551 244.075C52.4579 244.377 52.4579 245.208 53.0426 245.511ZM64.9548 243.175C65.8349 243.175 66.5704 243.892 66.5704 244.793C66.5704 245.681 65.8474 246.411 64.9548 246.411C64.0685 246.411 63.3393 245.687 63.3393 244.793C63.3393 243.899 64.0748 243.175 64.9548 243.175Z" fill="#E6DBCE"/>
<path d="M64.9674 284.456C65.8596 284.456 66.5829 283.732 66.5829 282.838C66.5829 281.944 65.8596 281.22 64.9674 281.22C64.0752 281.22 63.3519 281.944 63.3519 282.838C63.3519 283.732 64.0752 284.456 64.9674 284.456Z" fill="#E6DBCE"/>
<path d="M24.2771 50.7896L17.6703 47.339L15.1433 49.8703C14.8604 49.398 14.4707 49.0013 13.9992 48.7243L16.5263 46.193L13.0814 39.5751C12.7797 38.9958 11.9499 38.9958 11.6482 39.5751L8.20338 46.193L10.7304 48.7243C10.259 49.0076 9.86292 49.398 9.58633 49.8703L7.0593 47.339L0.446257 50.7896C-0.132069 51.0919 -0.132069 51.923 0.446257 52.2253L7.05301 55.6759L9.58005 53.1446C9.85664 53.6169 10.2527 54.0136 10.7241 54.2906L8.20338 56.8156L11.6482 63.4398C11.9499 64.0191 12.7797 64.0191 13.0814 63.4398L16.5263 56.8156L14.0055 54.2906C14.4707 54.0073 14.873 53.6169 15.1496 53.1446L17.6766 55.6759L24.2834 52.2253C24.8617 51.9168 24.8617 51.0919 24.2771 50.7896ZM12.3648 53.1194C11.4785 53.1194 10.7493 52.3953 10.7493 51.5012C10.7493 50.6007 11.4848 49.8829 12.3648 49.8829C13.2449 49.8829 13.9804 50.6007 13.9804 51.5012C13.9804 52.3953 13.2512 53.1194 12.3648 53.1194Z" fill="#E6DBCE"/>
<path d="M12.3649 91.8762C13.2571 91.8762 13.9804 91.1517 13.9804 90.2579C13.9804 89.3642 13.2571 88.6396 12.3649 88.6396C11.4726 88.6396 10.7493 89.3642 10.7493 90.2579C10.7493 91.1517 11.4726 91.8762 12.3649 91.8762Z" fill="#E6DBCE"/>
<path d="M9.56753 127.371L7.0405 124.84L0.433745 128.29C-0.144582 128.593 -0.144582 129.424 0.433745 129.726L7.0405 133.177L9.56753 130.645C9.84412 131.118 10.2402 131.514 10.7116 131.791L8.19086 134.316L11.6357 140.941C11.9374 141.52 12.7672 141.52 13.0689 140.941L16.5137 134.316L13.993 131.791C14.4582 131.508 14.8605 131.118 15.1371 130.645L17.6641 133.177L24.2709 129.726C24.8492 129.424 24.8492 128.593 24.2709 128.29L17.6641 124.84L15.1371 127.371C14.8542 126.899 14.4645 126.502 13.993 126.225L16.52 123.694L13.0752 117.076C12.7735 116.497 11.9437 116.497 11.642 117.076L8.19715 123.694L10.7242 126.225C10.2402 126.508 9.85041 126.899 9.56753 127.371ZM12.3523 127.396C13.2324 127.396 13.9678 128.114 13.9678 129.014C13.9678 129.902 13.2449 130.633 12.3523 130.633C11.466 130.633 10.7368 129.909 10.7368 129.014C10.7368 128.114 11.4722 127.396 12.3523 127.396Z" fill="#E6DBCE"/>
<path d="M12.3649 169.578C13.2571 169.578 13.9804 168.854 13.9804 167.96C13.9804 167.066 13.2571 166.342 12.3649 166.342C11.4726 166.342 10.7493 167.066 10.7493 167.96C10.7493 168.854 11.4726 169.578 12.3649 169.578Z" fill="#E6DBCE"/>
<path d="M0.433773 207.434L7.04053 210.885L9.56756 208.354C9.84415 208.826 10.2402 209.223 10.7116 209.5L8.19089 212.025L11.6357 218.649C11.9374 219.228 12.7672 219.228 13.069 218.649L16.5138 212.025L13.993 209.5C14.4582 209.216 14.8605 208.826 15.1371 208.354L17.6641 210.885L24.2709 207.434C24.8492 207.132 24.8492 206.301 24.2709 205.999L17.6641 202.548L15.1371 205.079C14.8542 204.607 14.4645 204.21 13.993 203.933L16.5201 201.402L13.0752 194.784C12.7735 194.205 11.9437 194.205 11.642 194.784L8.19718 201.402L10.7242 203.933C10.2528 204.217 9.85672 204.607 9.58013 205.079L7.0531 202.548L0.446345 205.999C-0.144554 206.301 -0.144554 207.132 0.433773 207.434ZM12.3523 205.098C13.2324 205.098 13.9679 205.816 13.9679 206.716C13.9679 207.604 13.245 208.335 12.3523 208.335C11.466 208.335 10.7368 207.611 10.7368 206.716C10.7368 205.816 11.4723 205.098 12.3523 205.098Z" fill="#E6DBCE"/>
<path d="M12.3649 246.789C13.2571 246.789 13.9804 246.064 13.9804 245.171C13.9804 244.277 13.2571 243.552 12.3649 243.552C11.4726 243.552 10.7493 244.277 10.7493 245.171C10.7493 246.064 11.4726 246.789 12.3649 246.789Z" fill="#E6DBCE"/>
<path d="M0.433773 284.645L7.04053 288.096L9.56756 285.565C9.84415 286.037 10.2402 286.434 10.7116 286.711L8.19089 289.236L11.6357 295.86C11.9374 296.439 12.7672 296.439 13.069 295.86L16.5138 289.236L13.993 286.711C14.4582 286.427 14.8605 286.037 15.1371 285.565L17.6641 288.096L24.2709 284.645C24.8492 284.343 24.8492 283.512 24.2709 283.21L17.6641 279.759L15.1371 282.29C14.8542 281.818 14.4645 281.421 13.993 281.144L16.5201 278.613L13.0752 271.995C12.7735 271.416 11.9437 271.416 11.642 271.995L8.19718 278.613L10.7242 281.144C10.2528 281.428 9.85672 281.818 9.58013 282.29L7.0531 279.759L0.446345 283.21C-0.144554 283.512 -0.144554 284.343 0.433773 284.645ZM12.3523 282.309C13.2324 282.309 13.9679 283.027 13.9679 283.927C13.9679 284.815 13.245 285.546 12.3523 285.546C11.466 285.546 10.7368 284.822 10.7368 283.927C10.7368 283.027 11.4723 282.309 12.3523 282.309Z" fill="#E6DBCE"/>
<path d="M12.3711 14.3693C13.2633 14.3693 13.9866 13.6448 13.9866 12.7511C13.9866 11.8573 13.2633 11.1328 12.3711 11.1328C11.4789 11.1328 10.7556 11.8573 10.7556 12.7511C10.7556 13.6448 11.4789 14.3693 12.3711 14.3693Z" fill="#E6DBCE"/>
<path d="M363.56 320.7L356.953 317.25L354.426 319.781C354.168 319.34 353.804 318.975 353.376 318.698L355.79 316.28L355.734 316.173L355.803 316.104L352.358 309.486C352.056 308.906 351.226 308.906 350.925 309.486L347.486 316.097L347.536 316.148L347.474 316.267L349.9 318.698C349.479 318.975 349.121 319.334 348.863 319.768L346.336 317.237L339.729 320.688C339.421 320.845 339.283 321.154 339.302 321.45C339.251 321.771 339.383 322.123 339.723 322.293L346.33 325.744L348.857 323.213C349.114 323.653 349.473 324.019 349.9 324.296L347.486 326.714L347.543 326.821L347.474 326.89L350.918 333.514C351.22 334.093 352.05 334.093 352.352 333.514L355.796 326.89L355.746 326.84L355.809 326.72L353.389 324.296C353.81 324.019 354.168 323.66 354.42 323.225L356.947 325.757L363.554 322.306C363.862 322.149 364 321.84 363.981 321.544C364.031 321.223 363.899 320.87 363.56 320.7ZM351.648 323.03C350.774 323.03 350.057 322.325 350.038 321.443C350.114 320.612 350.805 319.964 351.641 319.964C352.509 319.964 353.232 320.662 353.251 321.55C353.175 322.375 352.49 323.03 351.648 323.03Z" fill="#E6DBCE"/>
<path d="M351.648 361.787C352.54 361.787 353.263 361.063 353.263 360.169C353.263 360.074 353.251 359.986 353.238 359.898C353.251 359.81 353.263 359.722 353.263 359.627C353.263 358.733 352.54 358.009 351.648 358.009C350.755 358.009 350.032 358.733 350.032 359.627C350.032 359.722 350.045 359.81 350.057 359.898C350.045 359.986 350.032 360.074 350.032 360.169C350.032 361.063 350.755 361.787 351.648 361.787Z" fill="#E6DBCE"/>
<path d="M363.554 398.207L356.947 394.756L354.42 397.288C354.137 396.816 353.747 396.419 353.276 396.142L355.803 393.61L352.358 386.993C352.056 386.413 351.227 386.413 350.925 386.993L347.48 393.61L350.007 396.142C349.536 396.425 349.14 396.816 348.863 397.288L346.336 394.756L339.729 398.207C339.151 398.509 339.151 399.341 339.729 399.643L346.336 403.093L348.863 400.562C349.14 401.034 349.536 401.431 350.007 401.708L347.486 404.233L350.931 410.857C351.233 411.437 352.063 411.437 352.364 410.857L355.809 404.233L353.288 401.708C353.754 401.425 354.156 401.034 354.432 400.562L356.959 403.093L363.566 399.643C364.132 399.341 364.132 398.509 363.554 398.207ZM351.635 400.543C350.749 400.543 350.02 399.819 350.02 398.925C350.02 398.024 350.755 397.307 351.635 397.307C352.515 397.307 353.251 398.024 353.251 398.925C353.251 399.813 352.528 400.543 351.635 400.543Z" fill="#E6DBCE"/>
<path d="M351.648 439.489C352.54 439.489 353.263 438.764 353.263 437.87C353.263 436.977 352.54 436.252 351.648 436.252C350.756 436.252 350.032 436.977 350.032 437.87C350.032 438.764 350.756 439.489 351.648 439.489Z" fill="#E6DBCE"/>
<path d="M363.554 475.909L356.947 472.459L354.42 474.99C354.137 474.518 353.747 474.121 353.276 473.844L355.803 471.313L352.358 464.695C352.056 464.115 351.227 464.115 350.925 464.695L347.48 471.313L350.007 473.844C349.536 474.127 349.14 474.518 348.863 474.99L346.336 472.459L339.729 475.909C339.151 476.212 339.151 477.043 339.729 477.345L346.336 480.796L348.863 478.264C349.14 478.737 349.536 479.133 350.007 479.41L347.486 481.935L350.931 488.559C351.233 489.139 352.063 489.139 352.364 488.559L355.809 481.935L353.288 479.41C353.754 479.127 354.156 478.737 354.432 478.264L356.959 480.796L363.566 477.345C364.132 477.043 364.132 476.212 363.554 475.909ZM351.635 478.245C350.749 478.245 350.02 477.521 350.02 476.627C350.02 475.727 350.755 475.009 351.635 475.009C352.515 475.009 353.251 475.727 353.251 476.627C353.251 477.515 352.528 478.245 351.635 478.245Z" fill="#E6DBCE"/>
<path d="M351.648 516.7C352.54 516.7 353.263 515.975 353.263 515.081C353.263 514.188 352.54 513.463 351.648 513.463C350.756 513.463 350.032 514.188 350.032 515.081C350.032 515.975 350.756 516.7 351.648 516.7Z" fill="#E6DBCE"/>
<path d="M363.554 553.12L356.947 549.67L354.42 552.201C354.137 551.729 353.747 551.332 353.276 551.055L355.803 548.524L352.358 541.906C352.056 541.326 351.227 541.326 350.925 541.906L347.48 548.524L350.007 551.055C349.536 551.338 349.14 551.729 348.863 552.201L346.336 549.67L339.729 553.12C339.151 553.422 339.151 554.254 339.729 554.556L346.336 558.006L348.863 555.475C349.14 555.947 349.536 556.344 350.007 556.621L347.486 559.146L350.931 565.77C351.233 566.35 352.063 566.35 352.364 565.77L355.809 559.146L353.288 556.621C353.754 556.338 354.156 555.947 354.432 555.475L356.959 558.006L363.566 554.556C364.132 554.254 364.132 553.422 363.554 553.12ZM351.635 555.456C350.749 555.456 350.02 554.732 350.02 553.838C350.02 552.938 350.755 552.22 351.635 552.22C352.515 552.22 353.251 552.938 353.251 553.838C353.251 554.726 352.528 555.456 351.635 555.456Z" fill="#E6DBCE"/>
<path d="M351.648 593.495C352.54 593.495 353.263 592.771 353.263 591.877C353.263 590.983 352.54 590.258 351.648 590.258C350.756 590.258 350.032 590.983 350.032 591.877C350.032 592.771 350.756 593.495 351.648 593.495Z" fill="#E6DBCE"/>
<path d="M363.554 629.915L356.947 626.465L354.42 628.996C354.137 628.524 353.747 628.127 353.276 627.85L355.803 625.319L352.358 618.701C352.056 618.122 351.227 618.122 350.925 618.701L347.48 625.319L350.007 627.85C349.536 628.133 349.14 628.524 348.863 628.996L346.336 626.465L339.729 629.915C339.151 630.218 339.151 631.049 339.729 631.351L346.336 634.802L348.863 632.27C349.14 632.743 349.536 633.139 350.007 633.416L347.486 635.941L350.931 642.566C351.233 643.145 352.063 643.145 352.364 642.566L355.809 635.941L353.288 633.416C353.754 633.133 354.156 632.743 354.432 632.27L356.959 634.802L363.566 631.351C364.132 631.042 364.132 630.218 363.554 629.915ZM351.635 632.245C350.749 632.245 350.02 631.521 350.02 630.627C350.02 629.726 350.755 629.009 351.635 629.009C352.515 629.009 353.251 629.726 353.251 630.627C353.251 631.521 352.528 632.245 351.635 632.245Z" fill="#E6DBCE"/>
<path d="M310.957 359.828L304.351 356.378L301.824 358.909C301.566 358.468 301.201 358.103 300.774 357.826L303.188 355.408L303.131 355.301L303.2 355.232L299.756 348.614C299.454 348.035 298.624 348.035 298.322 348.614L294.877 355.232L294.928 355.282L294.865 355.402L297.291 357.832C296.87 358.109 296.512 358.468 296.254 358.903L293.727 356.372L287.12 359.822C286.812 359.98 286.674 360.288 286.693 360.584C286.643 360.905 286.775 361.258 287.114 361.428L293.721 364.878L296.248 362.347C296.506 362.788 296.87 363.153 297.291 363.43L294.877 365.848L294.934 365.955L294.865 366.024L298.31 372.649C298.611 373.228 299.441 373.228 299.743 372.649L303.188 366.024L303.137 365.974L303.2 365.854L300.78 363.43C301.201 363.153 301.56 362.794 301.811 362.36L304.338 364.891L310.945 361.44C311.253 361.283 311.391 360.974 311.372 360.678C311.429 360.351 311.291 360.005 310.957 359.828ZM299.039 362.165C298.165 362.165 297.448 361.459 297.43 360.584C297.505 359.753 298.197 359.104 299.033 359.104C299.9 359.104 300.623 359.803 300.642 360.691C300.573 361.51 299.881 362.165 299.039 362.165Z" fill="#E6DBCE"/>
<path d="M299.039 400.921C299.931 400.921 300.654 400.197 300.654 399.303C300.654 398.409 299.931 397.685 299.039 397.685C298.147 397.685 297.423 398.409 297.423 399.303C297.423 400.197 298.147 400.921 299.039 400.921Z" fill="#E6DBCE"/>
<path d="M310.945 437.335L304.338 433.885L301.811 436.416C301.528 435.944 301.138 435.547 300.667 435.27L303.194 432.739L299.749 426.121C299.447 425.541 298.618 425.541 298.316 426.121L294.871 432.739L297.398 435.27C296.927 435.553 296.531 435.944 296.254 436.416L293.727 433.885L287.12 437.335C286.542 437.638 286.542 438.469 287.12 438.771L293.727 442.222L296.254 439.69C296.531 440.163 296.927 440.559 297.398 440.836L294.877 443.361L298.322 449.986C298.624 450.565 299.454 450.565 299.755 449.986L303.2 443.361L300.68 440.836C301.145 440.553 301.547 440.163 301.824 439.69L304.351 442.222L310.957 438.771C311.529 438.469 311.529 437.638 310.945 437.335ZM299.033 439.671C298.146 439.671 297.417 438.947 297.417 438.053C297.417 437.153 298.152 436.435 299.033 436.435C299.913 436.435 300.648 437.153 300.648 438.053C300.648 438.941 299.919 439.671 299.033 439.671Z" fill="#E6DBCE"/>
<path d="M299.039 478.623C299.931 478.623 300.654 477.899 300.654 477.005C300.654 476.111 299.931 475.387 299.039 475.387C298.147 475.387 297.423 476.111 297.423 477.005C297.423 477.899 298.147 478.623 299.039 478.623Z" fill="#E6DBCE"/>
<path d="M310.945 515.044L304.338 511.593L301.811 514.124C301.528 513.652 301.138 513.255 300.667 512.978L303.194 510.447L299.749 503.829C299.447 503.25 298.618 503.25 298.316 503.829L294.871 510.447L297.398 512.978C296.927 513.262 296.531 513.652 296.254 514.124L293.727 511.593L287.12 515.044C286.542 515.346 286.542 516.177 287.12 516.479L293.727 519.93L296.254 517.399C296.531 517.871 296.927 518.267 297.398 518.545L294.877 521.07L298.322 527.694C298.624 528.273 299.454 528.273 299.755 527.694L303.2 521.07L300.68 518.545C301.145 518.261 301.547 517.871 301.824 517.399L304.351 519.93L310.957 516.479C311.529 516.171 311.529 515.346 310.945 515.044ZM299.033 517.373C298.146 517.373 297.417 516.649 297.417 515.755C297.417 514.855 298.152 514.137 299.033 514.137C299.913 514.137 300.648 514.855 300.648 515.755C300.648 516.643 299.919 517.373 299.033 517.373Z" fill="#E6DBCE"/>
<path d="M299.039 555.834C299.931 555.834 300.654 555.11 300.654 554.216C300.654 553.322 299.931 552.598 299.039 552.598C298.147 552.598 297.423 553.322 297.423 554.216C297.423 555.11 298.147 555.834 299.039 555.834Z" fill="#E6DBCE"/>
<path d="M310.945 592.248L304.338 588.798L301.811 591.329C301.528 590.857 301.138 590.46 300.667 590.183L303.194 587.652L299.749 581.034C299.447 580.454 298.618 580.454 298.316 581.034L294.871 587.652L297.398 590.183C296.927 590.466 296.531 590.857 296.254 591.329L293.727 588.798L287.12 592.248C286.542 592.55 286.542 593.382 287.12 593.684L293.727 597.134L296.254 594.603C296.531 595.075 296.927 595.472 297.398 595.749L294.877 598.274L298.322 604.898C298.624 605.478 299.454 605.478 299.755 604.898L303.2 598.274L300.68 595.749C301.145 595.466 301.547 595.075 301.824 594.603L304.351 597.134L310.957 593.684C311.529 593.382 311.529 592.55 310.945 592.248ZM299.033 594.584C298.146 594.584 297.417 593.86 297.417 592.966C297.417 592.066 298.152 591.348 299.033 591.348C299.913 591.348 300.648 592.066 300.648 592.966C300.648 593.854 299.919 594.584 299.033 594.584Z" fill="#E6DBCE"/>
<path d="M299.051 320.178C298.159 320.178 297.436 320.902 297.436 321.796C297.436 321.809 297.436 321.815 297.442 321.827C297.436 321.878 297.43 321.922 297.43 321.966C297.43 322.86 298.152 323.584 299.045 323.584C299.938 323.584 300.661 322.86 300.661 321.966C300.661 321.953 300.661 321.947 300.654 321.935C300.661 321.89 300.667 321.84 300.667 321.796C300.667 320.902 299.944 320.178 299.051 320.178Z" fill="#E6DBCE"/>
<path d="M265.49 320.7L258.883 317.25L256.356 319.781C256.098 319.34 255.733 318.975 255.306 318.698L257.72 316.28L257.663 316.173L257.732 316.098L254.288 309.48C253.986 308.9 253.156 308.9 252.854 309.48L249.41 316.098L249.46 316.148L249.397 316.268L251.823 318.698C251.402 318.975 251.044 319.334 250.786 319.769L248.259 317.237L241.652 320.688C241.344 320.845 241.206 321.154 241.225 321.45C241.175 321.771 241.307 322.124 241.646 322.294L248.253 325.744L250.78 323.213C251.038 323.654 251.402 324.019 251.823 324.296L249.41 326.714L249.466 326.821L249.397 326.89L252.842 333.514C253.144 334.094 253.973 334.094 254.275 333.514L257.72 326.89L257.67 326.84L257.732 326.72L255.312 324.296C255.733 324.019 256.092 323.66 256.343 323.225L258.87 325.757L265.477 322.306C265.785 322.149 265.923 321.84 265.904 321.544C265.961 321.223 265.823 320.87 265.49 320.7ZM253.571 323.03C252.697 323.03 251.981 322.325 251.962 321.443C252.037 320.612 252.729 319.964 253.565 319.964C254.432 319.964 255.155 320.663 255.174 321.551C255.099 322.375 254.413 323.03 253.571 323.03Z" fill="#E6DBCE"/>
<path d="M253.571 361.787C254.464 361.787 255.187 361.063 255.187 360.169C255.187 360.074 255.174 359.986 255.161 359.898C255.174 359.81 255.187 359.722 255.187 359.627C255.187 358.733 254.464 358.009 253.571 358.009C252.678 358.009 251.955 358.733 251.955 359.627C251.955 359.722 251.968 359.81 251.981 359.898C251.968 359.986 251.955 360.074 251.955 360.169C251.962 361.063 252.678 361.787 253.571 361.787Z" fill="#E6DBCE"/>
<path d="M265.477 398.207L258.87 394.756L256.343 397.288C256.06 396.816 255.671 396.419 255.199 396.142L257.726 393.61L254.281 386.993C253.98 386.413 253.15 386.413 252.848 386.993L249.403 393.61L251.93 396.142C251.459 396.425 251.063 396.816 250.786 397.288L248.259 394.756L241.652 398.207C241.074 398.509 241.074 399.341 241.652 399.643L248.259 403.093L250.786 400.562C251.063 401.034 251.459 401.431 251.93 401.708L249.41 404.233L252.854 410.857C253.156 411.437 253.986 411.437 254.288 410.857L257.732 404.233L255.212 401.708C255.677 401.425 256.079 401.034 256.356 400.562L258.883 403.093L265.49 399.643C266.055 399.341 266.062 398.509 265.477 398.207ZM253.558 400.543C252.672 400.543 251.943 399.819 251.943 398.925C251.943 398.024 252.678 397.307 253.558 397.307C254.439 397.307 255.174 398.024 255.174 398.925C255.174 399.813 254.451 400.543 253.558 400.543Z" fill="#E6DBCE"/>
<path d="M253.571 439.489C254.463 439.489 255.187 438.764 255.187 437.87C255.187 436.977 254.463 436.252 253.571 436.252C252.679 436.252 251.955 436.977 251.955 437.87C251.955 438.764 252.679 439.489 253.571 439.489Z" fill="#E6DBCE"/>
<path d="M265.477 475.909L258.87 472.459L256.343 474.99C256.06 474.518 255.671 474.121 255.199 473.844L257.726 471.313L254.281 464.695C253.98 464.115 253.15 464.115 252.848 464.695L249.403 471.313L251.93 473.844C251.459 474.127 251.063 474.518 250.786 474.99L248.259 472.459L241.652 475.909C241.074 476.212 241.074 477.043 241.652 477.345L248.259 480.796L250.786 478.264C251.063 478.737 251.459 479.133 251.93 479.41L249.41 481.935L252.854 488.559C253.156 489.139 253.986 489.139 254.288 488.559L257.732 481.935L255.212 479.41C255.677 479.127 256.079 478.737 256.356 478.264L258.883 480.796L265.49 477.345C266.055 477.043 266.062 476.212 265.477 475.909ZM253.558 478.245C252.672 478.245 251.943 477.521 251.943 476.627C251.943 475.727 252.678 475.009 253.558 475.009C254.439 475.009 255.174 475.727 255.174 476.627C255.174 477.515 254.451 478.245 253.558 478.245Z" fill="#E6DBCE"/>
<path d="M253.571 516.7C254.463 516.7 255.187 515.975 255.187 515.081C255.187 514.188 254.463 513.463 253.571 513.463C252.679 513.463 251.955 514.188 251.955 515.081C251.955 515.975 252.679 516.7 253.571 516.7Z" fill="#E6DBCE"/>
<path d="M265.477 553.12L258.87 549.67L256.343 552.201C256.06 551.729 255.671 551.332 255.199 551.055L257.726 548.524L254.281 541.906C253.98 541.326 253.15 541.326 252.848 541.906L249.403 548.524L251.93 551.055C251.459 551.338 251.063 551.729 250.786 552.201L248.259 549.67L241.652 553.12C241.074 553.422 241.074 554.254 241.652 554.556L248.259 558.006L250.786 555.475C251.063 555.947 251.459 556.344 251.93 556.621L249.41 559.146L252.854 565.77C253.156 566.35 253.986 566.35 254.288 565.77L257.732 559.146L255.212 556.621C255.677 556.338 256.079 555.947 256.356 555.475L258.883 558.006L265.49 554.556C266.055 554.254 266.062 553.422 265.477 553.12ZM253.558 555.456C252.672 555.456 251.943 554.732 251.943 553.838C251.943 552.938 252.678 552.22 253.558 552.22C254.439 552.22 255.174 552.938 255.174 553.838C255.174 554.726 254.451 555.456 253.558 555.456Z" fill="#E6DBCE"/>
<path d="M253.571 593.495C254.463 593.495 255.187 592.771 255.187 591.877C255.187 590.983 254.463 590.258 253.571 590.258C252.679 590.258 251.955 590.983 251.955 591.877C251.955 592.771 252.679 593.495 253.571 593.495Z" fill="#E6DBCE"/>
<path d="M265.477 629.915L258.87 626.465L256.343 628.996C256.06 628.524 255.671 628.127 255.199 627.85L257.726 625.319L254.281 618.701C253.98 618.122 253.15 618.122 252.848 618.701L249.403 625.319L251.93 627.85C251.459 628.133 251.063 628.524 250.786 628.996L248.259 626.465L241.652 629.915C241.074 630.218 241.074 631.049 241.652 631.351L248.259 634.802L250.786 632.27C251.063 632.743 251.459 633.139 251.93 633.416L249.41 635.941L252.854 642.566C253.156 643.145 253.986 643.145 254.288 642.566L257.732 635.941L255.212 633.416C255.677 633.133 256.079 632.743 256.356 632.27L258.883 634.802L265.49 631.351C266.055 631.042 266.062 630.218 265.477 629.915ZM253.558 632.245C252.672 632.245 251.943 631.521 251.943 630.627C251.943 629.726 252.678 629.009 253.558 629.009C254.439 629.009 255.174 629.726 255.174 630.627C255.174 631.521 254.451 632.245 253.558 632.245Z" fill="#E6DBCE"/>
<path d="M212.887 359.828L206.28 356.378L203.753 358.909C203.496 358.468 203.131 358.103 202.704 357.826L205.117 355.408L205.061 355.301L205.13 355.232L201.685 348.614C201.383 348.035 200.554 348.035 200.252 348.614L196.807 355.232L196.857 355.282L196.795 355.402L199.221 357.832C198.8 358.109 198.441 358.468 198.184 358.903L195.657 356.372L189.05 359.822C188.742 359.98 188.604 360.288 188.623 360.584C188.572 360.905 188.704 361.258 189.044 361.428L195.65 364.878L198.177 362.347C198.435 362.788 198.794 363.153 199.221 363.43L196.807 365.848L196.864 365.955L196.795 366.024L200.239 372.649C200.541 373.228 201.371 373.228 201.673 372.649L205.117 366.024L205.067 365.974L205.13 365.854L202.71 363.43C203.131 363.153 203.489 362.794 203.741 362.36L206.268 364.891L212.875 361.44C213.183 361.283 213.321 360.974 213.302 360.678C213.352 360.351 213.22 360.005 212.887 359.828ZM200.969 362.165C200.095 362.165 199.378 361.459 199.359 360.578C199.435 359.747 200.126 359.098 200.962 359.098C201.83 359.098 202.553 359.797 202.572 360.685C202.496 361.51 201.811 362.165 200.969 362.165Z" fill="#E6DBCE"/>
<path d="M200.969 400.921C201.861 400.921 202.584 400.197 202.584 399.303C202.584 398.409 201.861 397.685 200.969 397.685C200.076 397.685 199.353 398.409 199.353 399.303C199.353 400.197 200.076 400.921 200.969 400.921Z" fill="#E6DBCE"/>
<path d="M212.874 437.335L206.268 433.885L203.741 436.416C203.458 435.944 203.068 435.547 202.597 435.27L205.124 432.739L201.679 426.121C201.377 425.541 200.547 425.541 200.246 426.121L196.801 432.739L199.328 435.27C198.856 435.553 198.46 435.944 198.184 436.416L195.657 433.885L189.05 437.335C188.472 437.638 188.472 438.469 189.05 438.771L195.657 442.222L198.184 439.69C198.46 440.163 198.856 440.559 199.328 440.836L196.807 443.361L200.252 449.986C200.554 450.565 201.383 450.565 201.685 449.986L205.13 443.361L202.609 440.836C203.074 440.553 203.477 440.163 203.753 439.69L206.28 442.222L212.887 438.771C213.453 438.469 213.453 437.638 212.874 437.335ZM200.956 439.671C200.07 439.671 199.34 438.947 199.34 438.053C199.34 437.153 200.076 436.435 200.956 436.435C201.836 436.435 202.571 437.153 202.571 438.053C202.571 438.941 201.849 439.671 200.956 439.671Z" fill="#E6DBCE"/>
<path d="M200.969 478.623C201.861 478.623 202.584 477.899 202.584 477.005C202.584 476.111 201.861 475.387 200.969 475.387C200.076 475.387 199.353 476.111 199.353 477.005C199.353 477.899 200.076 478.623 200.969 478.623Z" fill="#E6DBCE"/>
<path d="M212.874 515.044L206.268 511.593L203.741 514.124C203.458 513.652 203.068 513.255 202.597 512.978L205.124 510.447L201.679 503.829C201.377 503.25 200.547 503.25 200.246 503.829L196.801 510.447L199.328 512.978C198.856 513.262 198.46 513.652 198.184 514.124L195.657 511.593L189.05 515.044C188.472 515.346 188.472 516.177 189.05 516.479L195.657 519.93L198.184 517.399C198.46 517.871 198.856 518.267 199.328 518.545L196.807 521.07L200.252 527.694C200.554 528.273 201.383 528.273 201.685 527.694L205.13 521.07L202.609 518.545C203.074 518.261 203.477 517.871 203.753 517.399L206.28 519.93L212.887 516.479C213.453 516.171 213.453 515.346 212.874 515.044ZM200.956 517.373C200.07 517.373 199.34 516.649 199.34 515.755C199.34 514.855 200.076 514.137 200.956 514.137C201.836 514.137 202.571 514.855 202.571 515.755C202.571 516.643 201.849 517.373 200.956 517.373Z" fill="#E6DBCE"/>
<path d="M200.969 555.834C201.861 555.834 202.584 555.11 202.584 554.216C202.584 553.322 201.861 552.598 200.969 552.598C200.076 552.598 199.353 553.322 199.353 554.216C199.353 555.11 200.076 555.834 200.969 555.834Z" fill="#E6DBCE"/>
<path d="M212.874 592.248L206.268 588.798L203.741 591.329C203.458 590.857 203.068 590.46 202.597 590.183L205.124 587.652L201.679 581.034C201.377 580.454 200.547 580.454 200.246 581.034L196.801 587.652L199.328 590.183C198.856 590.466 198.46 590.857 198.184 591.329L195.657 588.798L189.05 592.248C188.472 592.55 188.472 593.382 189.05 593.684L195.657 597.134L198.184 594.603C198.46 595.075 198.856 595.472 199.328 595.749L196.807 598.274L200.252 604.898C200.554 605.478 201.383 605.478 201.685 604.898L205.13 598.274L202.609 595.749C203.074 595.466 203.477 595.075 203.753 594.603L206.28 597.134L212.887 593.684C213.453 593.382 213.453 592.55 212.874 592.248ZM200.956 594.584C200.07 594.584 199.34 593.86 199.34 592.966C199.34 592.066 200.076 591.348 200.956 591.348C201.836 591.348 202.571 592.066 202.571 592.966C202.571 593.854 201.849 594.584 200.956 594.584Z" fill="#E6DBCE"/>
<path d="M200.981 320.178C200.088 320.178 199.365 320.902 199.365 321.796C199.365 321.809 199.372 321.815 199.372 321.827C199.365 321.878 199.359 321.922 199.359 321.966C199.359 322.86 200.082 323.584 200.975 323.584C201.867 323.584 202.59 322.86 202.59 321.966C202.59 321.953 202.584 321.947 202.584 321.935C202.59 321.89 202.596 321.84 202.596 321.796C202.59 320.902 201.867 320.178 200.981 320.178Z" fill="#E6DBCE"/>
<path d="M174.956 320.7L168.35 317.25L165.823 319.781C165.565 319.34 165.2 318.975 164.773 318.698L167.187 316.28L167.13 316.173L167.199 316.104L163.754 309.486C163.453 308.906 162.623 308.906 162.321 309.486L158.883 316.097L158.933 316.148L158.87 316.267L161.296 318.698C160.875 318.975 160.517 319.334 160.259 319.768L157.732 317.237L151.125 320.688C150.817 320.845 150.679 321.154 150.698 321.45C150.648 321.771 150.78 322.123 151.119 322.293L157.726 325.744L160.253 323.213C160.511 323.653 160.869 324.019 161.296 324.296L158.883 326.714L158.939 326.821L158.87 326.89L162.315 333.514C162.617 334.093 163.446 334.093 163.748 333.514L167.193 326.89L167.143 326.84L167.205 326.72L164.785 324.296C165.206 324.019 165.565 323.66 165.816 323.225L168.343 325.757L174.95 322.306C175.258 322.149 175.396 321.84 175.377 321.544C175.428 321.223 175.296 320.87 174.956 320.7ZM163.044 323.03C162.17 323.03 161.454 322.325 161.435 321.443C161.51 320.612 162.202 319.964 163.038 319.964C163.905 319.964 164.628 320.662 164.647 321.55C164.572 322.375 163.886 323.03 163.044 323.03Z" fill="#E6DBCE"/>
<path d="M163.044 361.787C163.937 361.787 164.66 361.063 164.66 360.169C164.66 360.074 164.647 359.986 164.634 359.898C164.647 359.81 164.66 359.722 164.66 359.627C164.66 358.733 163.937 358.009 163.044 358.009C162.151 358.009 161.429 358.733 161.429 359.627C161.429 359.722 161.441 359.81 161.454 359.898C161.441 359.986 161.429 360.074 161.429 360.169C161.429 361.063 162.151 361.787 163.044 361.787Z" fill="#E6DBCE"/>
<path d="M174.95 398.207L168.343 394.756L165.816 397.288C165.533 396.816 165.144 396.419 164.672 396.142L167.199 393.61L163.754 386.993C163.453 386.413 162.623 386.413 162.321 386.993L158.876 393.61L161.403 396.142C160.932 396.425 160.536 396.816 160.259 397.288L157.732 394.756L151.126 398.207C150.547 398.509 150.547 399.341 151.126 399.643L157.732 403.093L160.259 400.562C160.536 401.034 160.932 401.431 161.403 401.708L158.883 404.233L162.328 410.857C162.629 411.437 163.459 411.437 163.761 410.857L167.206 404.233L164.685 401.708C165.15 401.425 165.552 401.034 165.829 400.562L168.356 403.093L174.963 399.643C175.528 399.341 175.528 398.509 174.95 398.207ZM163.032 400.543C162.145 400.543 161.416 399.819 161.416 398.925C161.416 398.024 162.152 397.307 163.032 397.307C163.912 397.307 164.647 398.024 164.647 398.925C164.647 399.813 163.924 400.543 163.032 400.543Z" fill="#E6DBCE"/>
<path d="M163.044 439.489C163.936 439.489 164.66 438.764 164.66 437.87C164.66 436.977 163.936 436.252 163.044 436.252C162.152 436.252 161.429 436.977 161.429 437.87C161.429 438.764 162.152 439.489 163.044 439.489Z" fill="#E6DBCE"/>
<path d="M174.95 475.909L168.343 472.459L165.816 474.99C165.533 474.518 165.144 474.121 164.672 473.844L167.199 471.313L163.754 464.695C163.453 464.115 162.623 464.115 162.321 464.695L158.876 471.313L161.403 473.844C160.932 474.127 160.536 474.518 160.259 474.99L157.732 472.459L151.126 475.909C150.547 476.212 150.547 477.043 151.126 477.345L157.732 480.796L160.259 478.264C160.536 478.737 160.932 479.133 161.403 479.41L158.883 481.935L162.328 488.559C162.629 489.139 163.459 489.139 163.761 488.559L167.206 481.935L164.685 479.41C165.15 479.127 165.552 478.737 165.829 478.264L168.356 480.796L174.963 477.345C175.528 477.043 175.528 476.212 174.95 475.909ZM163.032 478.245C162.145 478.245 161.416 477.521 161.416 476.627C161.416 475.727 162.152 475.009 163.032 475.009C163.912 475.009 164.647 475.727 164.647 476.627C164.647 477.515 163.924 478.245 163.032 478.245Z" fill="#E6DBCE"/>
<path d="M163.044 516.7C163.936 516.7 164.66 515.975 164.66 515.081C164.66 514.188 163.936 513.463 163.044 513.463C162.152 513.463 161.429 514.188 161.429 515.081C161.429 515.975 162.152 516.7 163.044 516.7Z" fill="#E6DBCE"/>
<path d="M174.95 553.12L168.343 549.67L165.816 552.201C165.533 551.729 165.144 551.332 164.672 551.055L167.199 548.524L163.754 541.906C163.453 541.326 162.623 541.326 162.321 541.906L158.876 548.524L161.403 551.055C160.932 551.338 160.536 551.729 160.259 552.201L157.732 549.67L151.126 553.12C150.547 553.422 150.547 554.254 151.126 554.556L157.732 558.006L160.259 555.475C160.536 555.947 160.932 556.344 161.403 556.621L158.883 559.146L162.328 565.77C162.629 566.35 163.459 566.35 163.761 565.77L167.206 559.146L164.685 556.621C165.15 556.338 165.552 555.947 165.829 555.475L168.356 558.006L174.963 554.556C175.528 554.254 175.528 553.422 174.95 553.12ZM163.032 555.456C162.145 555.456 161.416 554.732 161.416 553.838C161.416 552.938 162.152 552.22 163.032 552.22C163.912 552.22 164.647 552.938 164.647 553.838C164.647 554.726 163.924 555.456 163.032 555.456Z" fill="#E6DBCE"/>
<path d="M163.044 593.495C163.936 593.495 164.66 592.771 164.66 591.877C164.66 590.983 163.936 590.258 163.044 590.258C162.152 590.258 161.429 590.983 161.429 591.877C161.429 592.771 162.152 593.495 163.044 593.495Z" fill="#E6DBCE"/>
<path d="M174.95 629.915L168.343 626.465L165.816 628.996C165.533 628.524 165.144 628.127 164.672 627.85L167.199 625.319L163.754 618.701C163.453 618.122 162.623 618.122 162.321 618.701L158.876 625.319L161.403 627.85C160.932 628.133 160.536 628.524 160.259 628.996L157.732 626.465L151.126 629.915C150.547 630.218 150.547 631.049 151.126 631.351L157.732 634.802L160.259 632.27C160.536 632.743 160.932 633.139 161.403 633.416L158.883 635.941L162.328 642.566C162.629 643.145 163.459 643.145 163.761 642.566L167.206 635.941L164.685 633.416C165.15 633.133 165.552 632.743 165.829 632.27L168.356 634.802L174.963 631.351C175.528 631.042 175.528 630.218 174.95 629.915ZM163.032 632.245C162.145 632.245 161.416 631.521 161.416 630.627C161.416 629.726 162.152 629.009 163.032 629.009C163.912 629.009 164.647 629.726 164.647 630.627C164.647 631.521 163.924 632.245 163.032 632.245Z" fill="#E6DBCE"/>
<path d="M122.354 359.828L115.747 356.378L113.22 358.909C112.962 358.468 112.598 358.103 112.17 357.826L114.584 355.408L114.528 355.301L114.597 355.232L111.152 348.614C110.85 348.035 110.02 348.035 109.719 348.614L106.274 355.232L106.324 355.282L106.261 355.402L108.688 357.832C108.267 358.109 107.908 358.468 107.651 358.903L105.124 356.372L98.5168 359.822C98.2088 359.98 98.0705 360.288 98.0893 360.584C98.039 360.905 98.171 361.258 98.5105 361.428L105.117 364.878L107.644 362.347C107.902 362.788 108.26 363.153 108.688 363.43L106.274 365.848L106.33 365.955L106.261 366.024L109.706 372.649C110.008 373.228 110.838 373.228 111.139 372.649L114.584 366.024L114.534 365.974L114.597 365.854L112.177 363.43C112.598 363.153 112.956 362.794 113.208 362.36L115.735 364.891L122.341 361.44C122.649 361.283 122.788 360.974 122.769 360.678C122.825 360.351 122.687 360.005 122.354 359.828ZM110.435 362.165C109.562 362.165 108.845 361.459 108.826 360.584C108.901 359.753 109.593 359.104 110.429 359.104C111.297 359.104 112.019 359.803 112.038 360.691C111.963 361.51 111.278 362.165 110.435 362.165Z" fill="#E6DBCE"/>
<path d="M110.435 400.921C111.327 400.921 112.051 400.197 112.051 399.303C112.051 398.409 111.327 397.685 110.435 397.685C109.543 397.685 108.82 398.409 108.82 399.303C108.82 400.197 109.543 400.921 110.435 400.921Z" fill="#E6DBCE"/>
<path d="M122.341 437.335L115.734 433.885L113.207 436.416C112.924 435.944 112.535 435.547 112.063 435.27L114.59 432.739L111.146 426.121C110.844 425.541 110.014 425.541 109.712 426.121L106.267 432.739L108.795 435.27C108.323 435.553 107.927 435.944 107.65 436.416L105.123 433.885L98.5166 437.335C97.9383 437.638 97.9383 438.469 98.5166 438.771L105.123 442.222L107.65 439.69C107.927 440.163 108.323 440.559 108.795 440.836L106.274 443.361L109.719 449.986C110.02 450.565 110.85 450.565 111.152 449.986L114.597 443.361L112.076 440.836C112.541 440.553 112.943 440.163 113.22 439.69L115.747 442.222L122.354 438.771C122.926 438.469 122.926 437.638 122.341 437.335ZM110.429 439.671C109.543 439.671 108.813 438.947 108.813 438.053C108.813 437.153 109.549 436.435 110.429 436.435C111.309 436.435 112.044 437.153 112.044 438.053C112.038 438.941 111.315 439.671 110.429 439.671Z" fill="#E6DBCE"/>
<path d="M110.435 478.623C111.327 478.623 112.051 477.899 112.051 477.005C112.051 476.111 111.327 475.387 110.435 475.387C109.543 475.387 108.82 476.111 108.82 477.005C108.82 477.899 109.543 478.623 110.435 478.623Z" fill="#E6DBCE"/>
<path d="M122.341 515.044L115.734 511.593L113.207 514.124C112.924 513.652 112.535 513.255 112.063 512.978L114.59 510.447L111.146 503.829C110.844 503.25 110.014 503.25 109.712 503.829L106.267 510.447L108.795 512.978C108.323 513.262 107.927 513.652 107.65 514.124L105.123 511.593L98.5166 515.044C97.9383 515.346 97.9383 516.177 98.5166 516.479L105.123 519.93L107.65 517.399C107.927 517.871 108.323 518.267 108.795 518.545L106.274 521.07L109.719 527.694C110.02 528.273 110.85 528.273 111.152 527.694L114.597 521.07L112.076 518.545C112.541 518.261 112.943 517.871 113.22 517.399L115.747 519.93L122.354 516.479C122.926 516.171 122.926 515.346 122.341 515.044ZM110.429 517.373C109.543 517.373 108.813 516.649 108.813 515.755C108.813 514.855 109.549 514.137 110.429 514.137C111.309 514.137 112.044 514.855 112.044 515.755C112.038 516.643 111.315 517.373 110.429 517.373Z" fill="#E6DBCE"/>
<path d="M110.435 555.834C111.327 555.834 112.051 555.11 112.051 554.216C112.051 553.322 111.327 552.598 110.435 552.598C109.543 552.598 108.82 553.322 108.82 554.216C108.82 555.11 109.543 555.834 110.435 555.834Z" fill="#E6DBCE"/>
<path d="M122.341 592.248L115.734 588.798L113.207 591.329C112.924 590.857 112.535 590.46 112.063 590.183L114.59 587.652L111.146 581.034C110.844 580.454 110.014 580.454 109.712 581.034L106.267 587.652L108.795 590.183C108.323 590.466 107.927 590.857 107.65 591.329L105.123 588.798L98.5166 592.248C97.9383 592.55 97.9383 593.382 98.5166 593.684L105.123 597.134L107.65 594.603C107.927 595.075 108.323 595.472 108.795 595.749L106.274 598.274L109.719 604.898C110.02 605.478 110.85 605.478 111.152 604.898L114.597 598.274L112.076 595.749C112.541 595.466 112.943 595.075 113.22 594.603L115.747 597.134L122.354 593.684C122.926 593.382 122.926 592.55 122.341 592.248ZM110.429 594.584C109.543 594.584 108.813 593.86 108.813 592.966C108.813 592.066 109.549 591.348 110.429 591.348C111.309 591.348 112.044 592.066 112.044 592.966C112.038 593.854 111.315 594.584 110.429 594.584Z" fill="#E6DBCE"/>
<path d="M110.448 320.178C109.555 320.178 108.832 320.902 108.832 321.796C108.832 321.809 108.832 321.815 108.838 321.827C108.832 321.878 108.826 321.922 108.826 321.966C108.826 322.86 109.549 323.584 110.441 323.584C111.334 323.584 112.057 322.86 112.057 321.966C112.057 321.953 112.057 321.947 112.051 321.935C112.057 321.89 112.063 321.84 112.063 321.796C112.063 320.902 111.34 320.178 110.448 320.178Z" fill="#E6DBCE"/>
<path d="M76.8859 320.7L70.2792 317.25L67.7521 319.781C67.4944 319.34 67.1298 318.975 66.7024 318.698L69.1162 316.28L69.0597 316.173L69.1288 316.104L65.684 309.486C65.3823 308.906 64.5525 308.906 64.2508 309.486L60.8059 316.097L60.8562 316.148L60.7934 316.267L63.2198 318.698C62.7987 318.975 62.4403 319.334 62.1826 319.768L59.6556 317.237L53.0488 320.688C52.7408 320.845 52.6025 321.154 52.6214 321.45C52.5711 321.771 52.7031 322.123 53.0425 322.293L59.6493 325.744L62.1763 323.213C62.4341 323.653 62.7987 324.019 63.2198 324.296L60.8059 326.714L60.8625 326.821L60.7934 326.89L64.2382 333.514C64.5399 334.093 65.3697 334.093 65.6714 333.514L69.1162 326.89L69.066 326.84L69.1288 326.72L66.7086 324.296C67.1298 324.019 67.4881 323.66 67.7396 323.225L70.2666 325.757L76.8734 322.306C77.1814 322.149 77.3197 321.84 77.3008 321.544C77.3574 321.223 77.2191 320.87 76.8859 320.7ZM64.9674 323.03C64.0936 323.03 63.377 322.325 63.3581 321.443C63.4336 320.612 64.125 319.964 64.9611 319.964C65.8286 319.964 66.5515 320.662 66.5704 321.55C66.4949 322.375 65.8097 323.03 64.9674 323.03Z" fill="#E6DBCE"/>
<path d="M64.9674 361.787C65.86 361.787 66.5829 361.063 66.5829 360.169C66.5829 360.074 66.5704 359.986 66.5578 359.898C66.5704 359.81 66.5829 359.722 66.5829 359.627C66.5829 358.733 65.86 358.009 64.9674 358.009C64.0748 358.009 63.3519 358.733 63.3519 359.627C63.3519 359.722 63.3644 359.81 63.377 359.898C63.3644 359.986 63.3519 360.074 63.3519 360.169C63.3519 361.063 64.0748 361.787 64.9674 361.787Z" fill="#E6DBCE"/>
<path d="M76.8734 398.207L70.2667 394.756L67.7397 397.288C67.4568 396.816 67.067 396.419 66.5956 396.142L69.1226 393.61L65.6778 386.993C65.3761 386.413 64.5463 386.413 64.2446 386.993L60.7997 393.61L63.3268 396.142C62.8553 396.425 62.4593 396.816 62.1827 397.288L59.6557 394.756L53.0489 398.207C52.4706 398.509 52.4706 399.341 53.0489 399.643L59.6557 403.093L62.1827 400.562C62.4593 401.034 62.8553 401.431 63.3268 401.708L60.806 404.233L64.2508 410.857C64.5526 411.437 65.3824 411.437 65.6841 410.857L69.1289 404.233L66.6082 401.708C67.0733 401.425 67.4756 401.034 67.7522 400.562L70.2793 403.093L76.886 399.643C77.4518 399.341 77.4518 398.509 76.8734 398.207ZM64.9549 400.543C64.0686 400.543 63.3394 399.819 63.3394 398.925C63.3394 398.024 64.0748 397.307 64.9549 397.307C65.835 397.307 66.5704 398.024 66.5704 398.925C66.5704 399.813 65.8475 400.543 64.9549 400.543Z" fill="#E6DBCE"/>
<path d="M64.9674 439.489C65.8596 439.489 66.5829 438.764 66.5829 437.87C66.5829 436.977 65.8596 436.252 64.9674 436.252C64.0752 436.252 63.3519 436.977 63.3519 437.87C63.3519 438.764 64.0752 439.489 64.9674 439.489Z" fill="#E6DBCE"/>
<path d="M76.8734 475.909L70.2667 472.459L67.7397 474.99C67.4568 474.518 67.067 474.121 66.5956 473.844L69.1226 471.313L65.6778 464.695C65.3761 464.115 64.5463 464.115 64.2446 464.695L60.7997 471.313L63.3268 473.844C62.8553 474.127 62.4593 474.518 62.1827 474.99L59.6557 472.459L53.0489 475.909C52.4706 476.212 52.4706 477.043 53.0489 477.345L59.6557 480.796L62.1827 478.264C62.4593 478.737 62.8553 479.133 63.3268 479.41L60.806 481.935L64.2508 488.559C64.5526 489.139 65.3824 489.139 65.6841 488.559L69.1289 481.935L66.6082 479.41C67.0733 479.127 67.4756 478.737 67.7522 478.264L70.2793 480.796L76.886 477.345C77.4518 477.043 77.4518 476.212 76.8734 475.909ZM64.9549 478.245C64.0686 478.245 63.3394 477.521 63.3394 476.627C63.3394 475.727 64.0748 475.009 64.9549 475.009C65.835 475.009 66.5704 475.727 66.5704 476.627C66.5704 477.515 65.8475 478.245 64.9549 478.245Z" fill="#E6DBCE"/>
<path d="M64.9674 516.7C65.8596 516.7 66.5829 515.975 66.5829 515.081C66.5829 514.188 65.8596 513.463 64.9674 513.463C64.0752 513.463 63.3519 514.188 63.3519 515.081C63.3519 515.975 64.0752 516.7 64.9674 516.7Z" fill="#E6DBCE"/>
<path d="M76.8734 553.12L70.2667 549.67L67.7397 552.201C67.4568 551.729 67.067 551.332 66.5956 551.055L69.1226 548.524L65.6778 541.906C65.3761 541.326 64.5463 541.326 64.2446 541.906L60.7997 548.524L63.3268 551.055C62.8553 551.338 62.4593 551.729 62.1827 552.201L59.6557 549.67L53.0489 553.12C52.4706 553.422 52.4706 554.254 53.0489 554.556L59.6557 558.006L62.1827 555.475C62.4593 555.947 62.8553 556.344 63.3268 556.621L60.806 559.146L64.2508 565.77C64.5526 566.35 65.3824 566.35 65.6841 565.77L69.1289 559.146L66.6082 556.621C67.0733 556.338 67.4756 555.947 67.7522 555.475L70.2793 558.006L76.886 554.556C77.4518 554.254 77.4518 553.422 76.8734 553.12ZM64.9549 555.456C64.0686 555.456 63.3394 554.732 63.3394 553.838C63.3394 552.938 64.0748 552.22 64.9549 552.22C65.835 552.22 66.5704 552.938 66.5704 553.838C66.5704 554.726 65.8475 555.456 64.9549 555.456Z" fill="#E6DBCE"/>
<path d="M64.9674 593.495C65.8596 593.495 66.5829 592.771 66.5829 591.877C66.5829 590.983 65.8596 590.258 64.9674 590.258C64.0752 590.258 63.3519 590.983 63.3519 591.877C63.3519 592.771 64.0752 593.495 64.9674 593.495Z" fill="#E6DBCE"/>
<path d="M76.8734 629.915L70.2667 626.465L67.7397 628.996C67.4568 628.524 67.067 628.127 66.5956 627.85L69.1226 625.319L65.6778 618.701C65.3761 618.122 64.5463 618.122 64.2446 618.701L60.7997 625.319L63.3268 627.85C62.8553 628.133 62.4593 628.524 62.1827 628.996L59.6557 626.465L53.0489 629.915C52.4706 630.218 52.4706 631.049 53.0489 631.351L59.6557 634.802L62.1827 632.27C62.4593 632.743 62.8553 633.139 63.3268 633.416L60.806 635.941L64.2508 642.566C64.5526 643.145 65.3824 643.145 65.6841 642.566L69.1289 635.941L66.6082 633.416C67.0733 633.133 67.4756 632.743 67.7522 632.27L70.2793 634.802L76.886 631.351C77.4518 631.042 77.4518 630.218 76.8734 629.915ZM64.9549 632.245C64.0686 632.245 63.3394 631.521 63.3394 630.627C63.3394 629.726 64.0748 629.009 64.9549 629.009C65.835 629.009 66.5704 629.726 66.5704 630.627C66.5704 631.521 65.8475 632.245 64.9549 632.245Z" fill="#E6DBCE"/>
<path d="M24.2771 359.828L17.6704 356.378L15.1433 358.909C14.8856 358.468 14.521 358.103 14.0935 357.826L16.5074 355.408L16.4508 355.301L16.52 355.232L13.0752 348.614C12.7734 348.035 11.9437 348.035 11.6419 348.614L8.19711 355.232L8.2474 355.282L8.18454 355.402L10.611 357.832C10.1898 358.109 9.83152 358.468 9.57378 358.903L7.04675 356.372L0.439996 359.822C0.131974 359.98 -0.00632159 360.288 0.0125369 360.584C-0.0377524 360.905 0.0942569 361.258 0.433709 361.428L7.04046 364.878L9.5675 362.347C9.82523 362.788 10.1835 363.153 10.611 363.43L8.19711 365.848L8.25369 365.955L8.18454 366.024L11.6294 372.649C11.9311 373.228 12.7609 373.228 13.0626 372.649L16.5074 366.024L16.4571 365.974L16.52 365.854L14.0998 363.43C14.521 363.153 14.8793 362.794 15.1307 362.36L17.6578 364.891L24.2708 361.434C24.5788 361.277 24.7171 360.968 24.6983 360.672C24.7486 360.351 24.6166 360.005 24.2771 359.828ZM12.3648 362.165C11.4911 362.165 10.7744 361.459 10.7556 360.578C10.831 359.747 11.5225 359.098 12.3586 359.098C13.226 359.098 13.9489 359.797 13.9678 360.685C13.8924 361.51 13.2072 362.165 12.3648 362.165Z" fill="#E6DBCE"/>
<path d="M12.3649 400.921C13.2571 400.921 13.9804 400.197 13.9804 399.303C13.9804 398.409 13.2571 397.685 12.3649 397.685C11.4726 397.685 10.7493 398.409 10.7493 399.303C10.7493 400.197 11.4726 400.921 12.3649 400.921Z" fill="#E6DBCE"/>
<path d="M24.2708 437.335L17.664 433.885L15.137 436.416C14.8541 435.944 14.4644 435.547 13.9929 435.27L16.52 432.739L13.0752 426.121C12.7734 425.541 11.9436 425.541 11.6419 426.121L8.19709 432.739L10.7241 435.27C10.2527 435.553 9.85664 435.944 9.58005 436.416L7.05301 433.885L0.446257 437.335C-0.132069 437.638 -0.132069 438.469 0.446257 438.771L7.05301 442.222L9.58005 439.69C9.85664 440.163 10.2527 440.559 10.7241 440.836L8.20338 443.361L11.6482 449.986C11.9499 450.565 12.7797 450.565 13.0814 449.986L16.5263 443.361L14.0055 440.836C14.4707 440.553 14.873 440.163 15.1496 439.69L17.6766 442.222L24.2834 438.771C24.8491 438.469 24.8491 437.638 24.2708 437.335ZM12.3522 439.671C11.4659 439.671 10.7367 438.947 10.7367 438.053C10.7367 437.153 11.4722 436.435 12.3522 436.435C13.2323 436.435 13.9678 437.153 13.9678 438.053C13.9678 438.941 13.2449 439.671 12.3522 439.671Z" fill="#E6DBCE"/>
<path d="M12.3649 478.623C13.2571 478.623 13.9804 477.899 13.9804 477.005C13.9804 476.111 13.2571 475.387 12.3649 475.387C11.4726 475.387 10.7493 476.111 10.7493 477.005C10.7493 477.899 11.4726 478.623 12.3649 478.623Z" fill="#E6DBCE"/>
<path d="M24.2708 515.044L17.664 511.593L15.137 514.124C14.8541 513.652 14.4644 513.255 13.9929 512.978L16.52 510.447L13.0752 503.829C12.7734 503.25 11.9436 503.25 11.6419 503.829L8.19709 510.447L10.7241 512.978C10.2527 513.262 9.85664 513.652 9.58005 514.124L7.05301 511.593L0.446257 515.044C-0.132069 515.346 -0.132069 516.177 0.446257 516.479L7.05301 519.93L9.58005 517.399C9.85664 517.871 10.2527 518.267 10.7241 518.545L8.20338 521.07L11.6482 527.694C11.9499 528.273 12.7797 528.273 13.0814 527.694L16.5263 521.07L14.0055 518.545C14.4707 518.261 14.873 517.871 15.1496 517.399L17.6766 519.93L24.2834 516.479C24.8491 516.171 24.8491 515.346 24.2708 515.044ZM12.3522 517.373C11.4659 517.373 10.7367 516.649 10.7367 515.755C10.7367 514.855 11.4722 514.137 12.3522 514.137C13.2323 514.137 13.9678 514.855 13.9678 515.755C13.9678 516.643 13.2449 517.373 12.3522 517.373Z" fill="#E6DBCE"/>
<path d="M12.3649 555.834C13.2571 555.834 13.9804 555.11 13.9804 554.216C13.9804 553.322 13.2571 552.598 12.3649 552.598C11.4726 552.598 10.7493 553.322 10.7493 554.216C10.7493 555.11 11.4726 555.834 12.3649 555.834Z" fill="#E6DBCE"/>
<path d="M24.2708 592.248L17.664 588.798L15.137 591.329C14.8541 590.857 14.4644 590.46 13.9929 590.183L16.52 587.652L13.0752 581.034C12.7734 580.454 11.9436 580.454 11.6419 581.034L8.19709 587.652L10.7241 590.183C10.2527 590.466 9.85664 590.857 9.58005 591.329L7.05301 588.798L0.446257 592.248C-0.132069 592.55 -0.132069 593.382 0.446257 593.684L7.05301 597.134L9.58005 594.603C9.85664 595.075 10.2527 595.472 10.7241 595.749L8.20338 598.274L11.6482 604.898C11.9499 605.478 12.7797 605.478 13.0814 604.898L16.5263 598.274L14.0055 595.749C14.4707 595.466 14.873 595.075 15.1496 594.603L17.6766 597.134L24.2834 593.684C24.8491 593.382 24.8491 592.55 24.2708 592.248ZM12.3522 594.584C11.4659 594.584 10.7367 593.86 10.7367 592.966C10.7367 592.066 11.4722 591.348 12.3522 591.348C13.2323 591.348 13.9678 592.066 13.9678 592.966C13.9678 593.854 13.2449 594.584 12.3522 594.584Z" fill="#E6DBCE"/>
<path d="M12.3712 320.178C11.4785 320.178 10.7556 320.902 10.7556 321.796C10.7556 321.809 10.7619 321.815 10.7619 321.827C10.7556 321.872 10.7493 321.922 10.7493 321.966C10.7493 322.86 11.4722 323.584 12.3649 323.584C13.2575 323.584 13.9804 322.86 13.9804 321.966C13.9804 321.953 13.9804 321.947 13.9741 321.935C13.9804 321.89 13.9867 321.84 13.9867 321.796C13.9867 320.902 13.2638 320.178 12.3712 320.178Z" fill="#E6DBCE"/>
</svg>
